<?xml version="1.0" encoding="UTF-8"?>
<svg width="421px" height="315px" viewBox="0 0 421 315" version="1.1" xmlns="http://www.w3.org/2000/svg" xmlns:xlink="http://www.w3.org/1999/xlink">
    <!-- Generator: Sketch 52.5 (67469) - http://www.bohemiancoding.com/sketch -->
    <title>comparison_2</title>
    <desc>Created with Sketch.</desc>
    <g id="comparison_2" stroke="none" stroke-width="1" fill="none" fill-rule="evenodd">
        <rect fill="#FFFFFF" x="0" y="0" width="421" height="315"></rect>
        <rect id="Rectangle-2-Copy" stroke="#000000" stroke-width="2" fill-rule="nonzero" x="130" y="45" width="164" height="86"></rect>
        <rect id="Rectangle-2-Copy-2" stroke="#000000" stroke-width="2" fill-rule="nonzero" x="25" y="200" width="116" height="70"></rect>
        <rect id="Rectangle-2-Copy-4" stroke="#000000" stroke-width="2" fill-rule="nonzero" x="281" y="200" width="116" height="70"></rect>
        <path d="M197.285156,83 L195.595703,83 L195.595703,76.2421875 L187.841797,76.2421875 L187.841797,83 L186.152344,83 L186.152344,68.5566406 L187.841797,68.5566406 L187.841797,74.7578125 L195.595703,74.7578125 L195.595703,68.5566406 L197.285156,68.5566406 L197.285156,83 Z M201.872266,77.6679688 C201.872266,78.9375063 202.153838,79.9547488 202.716992,80.7197266 C203.280146,81.4847043 204.102078,81.8671875 205.182813,81.8671875 C206.250526,81.8671875 207.056182,81.4863319 207.599805,80.7246094 C208.143427,79.9628868 208.415234,78.9375064 208.415234,77.6484375 C208.415234,76.3398372 208.146682,75.3095741 207.60957,74.5576172 C207.072458,73.8056603 206.253782,73.4296875 205.153516,73.4296875 C204.085802,73.4296875 203.272008,73.8137982 202.712109,74.5820312 C202.152211,75.3502643 201.872266,76.3788998 201.872266,77.6679688 Z M210.104688,77.6386719 C210.104688,79.2988364 209.661984,80.6448516 208.776563,81.6767578 C207.891141,82.708664 206.667195,83.2246094 205.104688,83.2246094 C203.600774,83.2246094 202.404497,82.7037812 201.51582,81.6621094 C200.627144,80.6204375 200.182813,79.2825603 200.182813,77.6484375 C200.182813,75.9817625 200.628772,74.6341197 201.520703,73.6054688 C202.412635,72.5768178 203.636581,72.0625 205.192578,72.0625 C206.722534,72.0625 207.923694,72.5784454 208.796094,73.6103516 C209.668494,74.6422578 210.104688,75.9850178 210.104688,77.6386719 Z M212.338281,79.4257812 L212.338281,72.2871094 L213.978906,72.2871094 L213.978906,79.4453125 C213.978906,79.9140648 214.045637,80.3111963 214.179102,80.6367188 C214.312566,80.9622412 214.504621,81.2145173 214.755273,81.3935547 C215.005926,81.572592 215.289126,81.7011715 215.604883,81.7792969 C215.92064,81.8574223 216.283592,81.8964844 216.69375,81.8964844 C217.540108,81.8964844 218.199281,81.7109394 218.671289,81.3398438 C219.143297,80.9687481 219.379297,80.337244 219.379297,79.4453125 L219.379297,72.2871094 L221.019922,72.2871094 L221.019922,79.4257812 C221.019922,79.972659 220.941798,80.4641905 220.785547,80.9003906 C220.629296,81.3365907 220.419337,81.6995428 220.155664,81.9892578 C219.891991,82.2789728 219.574611,82.5182282 219.203516,82.7070312 C218.83242,82.8958343 218.440171,83.0325517 218.026758,83.1171875 C217.613344,83.2018233 217.169013,83.2441406 216.69375,83.2441406 C216.224998,83.2441406 215.782294,83.2018233 215.365625,83.1171875 C214.948956,83.0325517 214.553452,82.8942067 214.179102,82.7021484 C213.804751,82.5100902 213.482488,82.2692072 213.212305,81.9794922 C212.942121,81.6897772 212.728907,81.3268251 212.572656,80.890625 C212.416405,80.4544249 212.338281,79.9661485 212.338281,79.4257812 Z M228.55625,72.1894531 C228.84922,72.1894531 229.116145,72.2089842 229.357031,72.2480469 L229.298438,73.7519531 C228.998957,73.6998695 228.738543,73.6738281 228.517188,73.6738281 C227.605725,73.6738281 226.865172,73.9912078 226.295508,74.6259766 C225.725844,75.2607454 225.441016,76.0468703 225.441016,76.984375 L225.441016,83 L223.810156,83 C223.803646,76.4244463 223.800391,72.8535185 223.800391,72.2871094 L225.157813,72.2871094 L225.314063,74.2109375 C225.685158,73.6054657 226.157159,73.1171894 226.730078,72.7460938 C227.302998,72.3749981 227.911716,72.1894531 228.55625,72.1894531 Z M234.530078,83.2246094 C233.800908,83.2246094 233.128714,83.1464852 232.513477,82.9902344 C231.898239,82.8339836 231.39857,82.6321627 231.014453,82.3847656 L231.219531,81.0078125 C232.306776,81.5872425 233.374474,81.8769531 234.422656,81.8769531 C236.011206,81.8769531 236.828255,81.3170629 236.873828,80.1972656 C236.873828,79.7220028 236.704559,79.3476576 236.366016,79.0742188 C236.027472,78.8007799 235.363416,78.4947934 234.373828,78.15625 L233.563281,77.8730469 C232.625777,77.5605453 231.956838,77.1731794 231.556445,76.7109375 C231.156053,76.2486956 230.952604,75.6725295 230.946094,74.9824219 C230.946094,74.1425739 231.283004,73.4459663 231.956836,72.8925781 C232.630667,72.3391899 233.55351,72.0625 234.725391,72.0625 C235.936334,72.0625 237.039839,72.2968727 238.035937,72.765625 L237.557422,74.015625 C236.548302,73.5989563 235.604301,73.390625 234.725391,73.390625 C234.041793,73.390625 233.506317,73.5257148 233.118945,73.7958984 C232.731574,74.0660821 232.537891,74.4453101 232.537891,74.9335938 C232.537891,75.3502625 232.677863,75.6692697 232.957812,75.890625 C233.237762,76.1119803 233.797652,76.365884 234.6375,76.6523438 C234.852345,76.7304691 235.122524,76.8216141 235.448047,76.9257812 C236.528781,77.2773455 237.293748,77.6923804 237.742969,78.1708984 C238.19219,78.6494165 238.416797,79.2955688 238.416797,80.109375 C238.403776,81.0989633 238.048962,81.8655572 237.352344,82.4091797 C236.655726,82.9528022 235.71498,83.2246094 234.530078,83.2246094 Z M177.815234,106.617188 C179.319148,107.359379 180.93046,107.730469 182.649219,107.730469 C184.765115,107.730469 185.823047,106.766937 185.823047,104.839844 C185.823047,104.214841 185.655405,103.708661 185.320117,103.321289 C184.984829,102.933917 184.374484,102.629558 183.489063,102.408203 L180.617969,101.685547 C178.423947,101.132159 177.326953,99.9602954 177.326953,98.1699219 C177.326953,96.7962171 177.798954,95.7757195 178.742969,95.1083984 C179.686984,94.4410774 180.992309,94.1074219 182.658984,94.1074219 C183.531385,94.1074219 184.348434,94.201822 185.110156,94.390625 C185.871879,94.579428 186.509893,94.8333317 187.024219,95.1523438 L186.535938,96.5292969 C186.099737,96.2884103 185.521944,96.0735687 184.802539,95.8847656 C184.083134,95.6959626 183.355603,95.6015625 182.619922,95.6015625 C180.263139,95.6015625 179.084766,96.4186116 179.084766,98.0527344 C179.084766,98.6061226 179.265428,99.0504541 179.626758,99.3857422 C179.988088,99.7210303 180.530075,99.9765616 181.252734,100.152344 L183.996875,100.816406 C185.168756,101.096356 186.057419,101.543942 186.662891,102.15918 C187.268362,102.774417 187.571094,103.648432 187.571094,104.78125 C187.571094,106.252612 187.120252,107.360999 186.218555,108.106445 C185.316857,108.851892 184.091284,109.224609 182.541797,109.224609 C181.382937,109.224609 180.352674,109.105795 179.450977,108.868164 C178.549279,108.630533 177.834768,108.34896 177.307422,108.023438 L177.815234,106.617188 Z M193.486328,109.195312 C192.431635,109.195312 191.682945,108.938154 191.240234,108.423828 C190.797524,107.909503 190.563151,107.079433 190.537109,105.933594 L190.537109,99.4980469 L188.945312,99.4980469 L189.013672,98.4238281 L190.527344,98.2871094 L191.083984,95.8359375 L192.158203,95.796875 L192.158203,98.2871094 L195.136719,98.2871094 L195.136719,99.4980469 L192.158203,99.4980469 L192.158203,105.640625 C192.158203,106.454431 192.2819,107.027342 192.529297,107.359375 C192.776694,107.691408 193.199867,107.857422 193.798828,107.857422 C194.013673,107.857422 194.479163,107.805339 195.195312,107.701172 L195.263672,108.990234 C194.488928,109.126954 193.896486,109.195312 193.486328,109.195312 Z M196.930859,105.425781 L196.930859,98.2871094 L198.571484,98.2871094 L198.571484,105.445312 C198.571484,105.914065 198.638215,106.311196 198.77168,106.636719 C198.905144,106.962241 199.097199,107.214517 199.347852,107.393555 C199.598504,107.572592 199.881704,107.701171 200.197461,107.779297 C200.513218,107.857422 200.87617,107.896484 201.286328,107.896484 C202.132687,107.896484 202.79186,107.710939 203.263867,107.339844 C203.735875,106.968748 203.971875,106.337244 203.971875,105.445312 L203.971875,98.2871094 L205.6125,98.2871094 L205.6125,105.425781 C205.6125,105.972659 205.534376,106.464191 205.378125,106.900391 C205.221874,107.336591 205.011915,107.699543 204.748242,107.989258 C204.484569,108.278973 204.167189,108.518228 203.796094,108.707031 C203.424998,108.895834 203.032749,109.032552 202.619336,109.117188 C202.205922,109.201823 201.761591,109.244141 201.286328,109.244141 C200.817576,109.244141 200.374872,109.201823 199.958203,109.117188 C199.541534,109.032552 199.146031,108.894207 198.77168,108.702148 C198.397329,108.51009 198.075066,108.269207 197.804883,107.979492 C197.534699,107.689777 197.321485,107.326825 197.165234,106.890625 C197.008984,106.454425 196.930859,105.966149 196.930859,105.425781 Z M212.523828,107.818359 C213.598052,107.818359 214.397198,107.473311 214.921289,106.783203 C215.44538,106.093096 215.707422,105.106777 215.707422,103.824219 C215.707422,102.378899 215.455146,101.290043 214.950586,100.557617 C214.446026,99.8251917 213.630605,99.4589844 212.504297,99.4589844 C212.002992,99.4589844 211.560288,99.5664052 211.176172,99.78125 C210.792055,99.9960948 210.482814,100.295571 210.248438,100.679688 C210.014061,101.063804 209.836654,101.50488 209.716211,102.00293 C209.595768,102.500979 209.535547,103.046221 209.535547,103.638672 C209.535547,104.472009 209.638085,105.194658 209.843164,105.806641 C210.048243,106.418623 210.378644,106.906899 210.834375,107.271484 C211.290106,107.63607 211.853252,107.818359 212.523828,107.818359 Z M215.736719,107.447266 C215.385154,107.987633 214.916409,108.417316 214.330469,108.736328 C213.744528,109.05534 213.090238,109.214844 212.367578,109.214844 C210.954811,109.214844 209.848051,108.711919 209.047266,107.706055 C208.24648,106.70019 207.846094,105.331389 207.846094,103.599609 C207.846094,101.945955 208.252991,100.609706 209.066797,99.5908203 C209.880603,98.571935 210.971087,98.0625 212.338281,98.0625 C213.04792,98.0625 213.716859,98.2171208 214.345117,98.5263672 C214.973376,98.8356135 215.443748,99.2506484 215.75625,99.7714844 L215.726953,98.84375 L215.726953,94.1269531 L217.338281,94.0292969 L217.338281,109 L215.951563,109 L215.736719,107.447266 Z M222.394141,98.2871094 L222.394141,109 L220.753516,109 L220.753516,98.2871094 L222.394141,98.2871094 Z M222.394141,94.390625 L222.394141,96.3242188 L220.753516,96.3242188 L220.753516,94.390625 L222.394141,94.390625 Z M231.932422,100.269531 C231.457159,99.6966117 230.802869,99.4101562 229.969531,99.4101562 C229.136194,99.4101562 228.455862,99.7047497 227.928516,100.293945 C227.401169,100.883141 227.091928,101.688797 227.000781,102.710938 L232.655078,102.710938 C232.655078,101.649734 232.414195,100.83594 231.932422,100.269531 Z M230.291797,109.224609 C228.7358,109.224609 227.510226,108.729823 226.615039,107.740234 C225.719852,106.750646 225.272266,105.396493 225.272266,103.677734 C225.272266,102.01757 225.705204,100.671555 226.571094,99.6396484 C227.436983,98.6077422 228.576295,98.0820313 229.989063,98.0625 C231.317194,98.0625 232.370244,98.516597 233.148242,99.4248047 C233.926241,100.333012 234.315234,101.545565 234.315234,103.0625 C234.315234,103.140625 234.313607,103.283853 234.310352,103.492188 C234.307096,103.700522 234.305469,103.85026 234.305469,103.941406 L226.951953,103.941406 C226.971484,105.15886 227.285609,106.107744 227.894336,106.788086 C228.503063,107.468428 229.32174,107.808594 230.350391,107.808594 C231.483209,107.808594 232.619265,107.509118 233.758594,106.910156 L234.0125,108.228516 C232.925255,108.892581 231.685033,109.224609 230.291797,109.224609 Z M241.060547,107.818359 C242.134771,107.818359 242.933917,107.473311 243.458008,106.783203 C243.982099,106.093096 244.244141,105.106777 244.244141,103.824219 C244.244141,102.378899 243.991865,101.290043 243.487305,100.557617 C242.982745,99.8251917 242.167323,99.4589844 241.041016,99.4589844 C240.539711,99.4589844 240.097007,99.5664052 239.712891,99.78125 C239.328774,99.9960948 239.019532,100.295571 238.785156,100.679688 C238.55078,101.063804 238.373373,101.50488 238.25293,102.00293 C238.132486,102.500979 238.072266,103.046221 238.072266,103.638672 C238.072266,104.472009 238.174804,105.194658 238.379883,105.806641 C238.584962,106.418623 238.915362,106.906899 239.371094,107.271484 C239.826825,107.63607 240.389971,107.818359 241.060547,107.818359 Z M244.273438,107.447266 C243.921873,107.987633 243.453128,108.417316 242.867188,108.736328 C242.281247,109.05534 241.626957,109.214844 240.904297,109.214844 C239.491529,109.214844 238.38477,108.711919 237.583984,107.706055 C236.783199,106.70019 236.382812,105.331389 236.382812,103.599609 C236.382812,101.945955 236.789709,100.609706 237.603516,99.5908203 C238.417322,98.571935 239.507806,98.0625 240.875,98.0625 C241.584639,98.0625 242.253578,98.2171208 242.881836,98.5263672 C243.510094,98.8356135 243.980467,99.2506484 244.292969,99.7714844 L244.263672,98.84375 L244.263672,94.1269531 L245.875,94.0292969 L245.875,109 L244.488281,109 L244.273438,107.447266 Z" id="Hours-Studied" fill="#000000"></path>
        <path d="M125.308008,165.224609 C124.435608,165.224609 123.659248,165.110678 122.978906,164.882812 C122.298564,164.654947 121.80215,164.391278 121.489648,164.091797 L122.036523,162.65625 C122.954497,163.37891 124.048236,163.740234 125.317773,163.740234 C126.294341,163.740234 127.0707,163.497724 127.646875,163.012695 C128.22305,162.527667 128.511133,161.848963 128.511133,160.976562 C128.511133,160.5013 128.437891,160.086265 128.291406,159.731445 C128.144921,159.376626 127.949611,159.09017 127.705469,158.87207 C127.461327,158.65397 127.14883,158.478191 126.767969,158.344727 C126.387107,158.211262 125.996486,158.116862 125.596094,158.061523 C125.195701,158.006185 124.731839,157.972005 124.204492,157.958984 C124.139388,157.958984 124.041732,157.957357 123.911523,157.954102 C123.781314,157.950846 123.683659,157.949219 123.618555,157.949219 L123.618555,156.494141 L124.106836,156.494141 C124.562567,156.48763 124.964582,156.463216 125.312891,156.420898 C125.6612,156.378581 126.009503,156.302084 126.357812,156.191406 C126.706122,156.080729 126.994205,155.934246 127.22207,155.751953 C127.449936,155.569661 127.635481,155.325522 127.778711,155.019531 C127.921941,154.71354 127.993555,154.352216 127.993555,153.935547 C127.993555,152.373039 127.098381,151.591797 125.308008,151.591797 C124.663473,151.591797 124.058011,151.686197 123.491602,151.875 C122.925192,152.063803 122.440171,152.317707 122.036523,152.636719 L121.489648,151.210938 C122.459705,150.475257 123.856176,150.107422 125.679102,150.107422 C126.414782,150.107422 127.095114,150.242512 127.720117,150.512695 C128.34512,150.782879 128.859438,151.196286 129.263086,151.75293 C129.666734,152.309573 129.868555,152.962236 129.868555,153.710938 C129.868555,154.6224 129.643948,155.371091 129.194727,155.957031 C128.745506,156.542972 128.114001,156.962889 127.300195,157.216797 C128.211658,157.41211 128.926169,157.838538 129.44375,158.496094 C129.961331,159.153649 130.220117,159.986974 130.220117,160.996094 C130.220117,162.278652 129.761137,163.304033 128.843164,164.072266 C127.925191,164.840499 126.746817,165.224609 125.308008,165.224609 Z" id="3" fill="#000000"></path>
        <polygon id="&gt;" fill="#000000" points="107.230859 158.962891 114.789453 155.574219 107.250391 151.804688 107.250391 150.28125 116.605859 155.154297 116.605859 156.101562 107.230859 160.515625"></polygon>
        <path d="M303.438281,163.574219 L294.082812,159.091797 L294.082812,158.144531 L303.457812,153.330078 L303.457812,154.873047 L295.889453,158.574219 L303.438281,162.03125 L303.438281,163.574219 Z M309.695312,165.224609 C308.822912,165.224609 308.046553,165.110678 307.366211,164.882812 C306.685869,164.654947 306.189455,164.391278 305.876953,164.091797 L306.423828,162.65625 C307.341801,163.37891 308.435541,163.740234 309.705078,163.740234 C310.681646,163.740234 311.458005,163.497724 312.03418,163.012695 C312.610354,162.527667 312.898438,161.848963 312.898438,160.976562 C312.898438,160.5013 312.825196,160.086265 312.678711,159.731445 C312.532226,159.376626 312.336915,159.09017 312.092773,158.87207 C311.848632,158.65397 311.536135,158.478191 311.155273,158.344727 C310.774412,158.211262 310.383791,158.116862 309.983398,158.061523 C309.583006,158.006185 309.119143,157.972005 308.591797,157.958984 C308.526692,157.958984 308.429037,157.957357 308.298828,157.954102 C308.168619,157.950846 308.070964,157.949219 308.005859,157.949219 L308.005859,156.494141 L308.494141,156.494141 C308.949872,156.48763 309.351886,156.463216 309.700195,156.420898 C310.048504,156.378581 310.396808,156.302084 310.745117,156.191406 C311.093426,156.080729 311.381509,155.934246 311.609375,155.751953 C311.837241,155.569661 312.022786,155.325522 312.166016,155.019531 C312.309246,154.71354 312.380859,154.352216 312.380859,153.935547 C312.380859,152.373039 311.485686,151.591797 309.695312,151.591797 C309.050778,151.591797 308.445315,151.686197 307.878906,151.875 C307.312497,152.063803 306.827476,152.317707 306.423828,152.636719 L305.876953,151.210938 C306.84701,150.475257 308.24348,150.107422 310.066406,150.107422 C310.802087,150.107422 311.482419,150.242512 312.107422,150.512695 C312.732425,150.782879 313.246743,151.196286 313.650391,151.75293 C314.054038,152.309573 314.255859,152.962236 314.255859,153.710938 C314.255859,154.6224 314.031252,155.371091 313.582031,155.957031 C313.13281,156.542972 312.501306,156.962889 311.6875,157.216797 C312.598963,157.41211 313.313474,157.838538 313.831055,158.496094 C314.348635,159.153649 314.607422,159.986974 314.607422,160.996094 C314.607422,162.278652 314.148442,163.304033 313.230469,164.072266 C312.312495,164.840499 311.134122,165.224609 309.695312,165.224609 Z" id="&lt;3" fill="#000000"></path>
        <path d="M211,132 L83,199" id="Line-Copy" stroke="#000000" stroke-width="2" stroke-linecap="square" fill-rule="nonzero"></path>
        <path d="M341,132 L213,199" id="Line-Copy" stroke="#000000" stroke-width="2" stroke-linecap="square" fill-rule="nonzero" transform="translate(277.000000, 165.500000) scale(-1, 1) translate(-277.000000, -165.500000) "></path>
        <circle id="Oval-Copy-15" fill="#4C7EF3" fill-rule="nonzero" cx="57" cy="223" r="6"></circle>
        <circle id="Oval-Copy-20" fill="#F8E71C" fill-rule="nonzero" cx="314" cy="246" r="6"></circle>
        <circle id="Oval-Copy-17" fill="#4C7EF3" fill-rule="nonzero" cx="40" cy="223" r="6"></circle>
        <circle id="Oval-Copy-26" fill="#F8E71C" fill-rule="nonzero" cx="297" cy="246" r="6"></circle>
        <circle id="Oval-Copy-18" fill="#4C7EF3" fill-rule="nonzero" cx="74" cy="223" r="6"></circle>
        <circle id="Oval-Copy-27" fill="#F8E71C" fill-rule="nonzero" cx="331" cy="246" r="6"></circle>
        <circle id="Oval-Copy-24" fill="#4C7EF3" fill-rule="nonzero" cx="91" cy="223" r="6"></circle>
        <circle id="Oval-Copy-33" fill="#F8E71C" fill-rule="nonzero" cx="348" cy="246" r="6"></circle>
        <circle id="Oval-Copy-25" fill="#4C7EF3" fill-rule="nonzero" cx="108" cy="223" r="6"></circle>
        <circle id="Oval-Copy-34" fill="#F8E71C" fill-rule="nonzero" cx="365" cy="246" r="6"></circle>
        <circle id="Oval-Copy-29" fill="#4C7EF3" fill-rule="nonzero" cx="125" cy="223" r="6"></circle>
        <circle id="Oval-Copy-35" fill="#F8E71C" fill-rule="nonzero" cx="382" cy="246" r="6"></circle>
        <rect id="Rectangle" fill="#000000" fill-rule="nonzero" x="107" y="163" width="10" height="2"></rect>
    </g>
</svg>