<?xml version="1.0" encoding="utf-8"?>
<!-- Generator: Adobe Illustrator 22.1.0, SVG Export Plug-In . SVG Version: 6.00 Build 0)  -->
<svg version="1.1" id="Layer_1" xmlns="http://www.w3.org/2000/svg" xmlns:xlink="http://www.w3.org/1999/xlink" x="0px" y="0px"
	 viewBox="0 0 944.1 379" style="enable-background:new 0 0 944.1 379;" xml:space="preserve">
<style type="text/css">
	.st0{fill:#D7E1F9;stroke:#4C7EEF;stroke-width:4;stroke-linecap:round;stroke-miterlimit:10;}
	.st1{fill:none;stroke:#F64358;stroke-width:4;stroke-miterlimit:10;}
	.st2{fill:#1A1A1A;}
	.st3{fill:#4C7EEF;}
	.st4{fill:#F64358;}
	.st5{fill:none;stroke:#FFC105;stroke-width:4;stroke-linecap:round;stroke-miterlimit:10;}
	.st6{fill:none;stroke:#F64358;stroke-width:4;stroke-linecap:round;stroke-miterlimit:10;}
	.st7{fill:#214056;}
	.st8{fill:#F2F2F2;}
</style>
<rect y="0" class="st7" width="944.1" height="379"/>
<line class="st0" x1="574.5" y1="166.9" x2="901.2" y2="166.9"/>
<line class="st1" x1="49.5" y1="166.9" x2="370" y2="166.9"/>
<g>
	<path class="st8" d="M570.2,276.2c-1.5,0-2.8-0.2-4-0.7s-2.2-1.2-2.9-2.2s-1.1-2.2-1.1-3.5c0-2.7,1.4-4.7,4.1-5.9
		c-2.4-1.1-3.6-2.9-3.6-5.4c0-1,0.2-1.8,0.6-2.6c0.4-0.8,0.9-1.4,1.6-1.9c0.7-0.5,1.5-0.9,2.4-1.1c0.9-0.2,1.9-0.4,3-0.4
		c2.2,0,4,0.5,5.5,1.5s2.1,2.5,2.1,4.4c0,2.4-1.1,4.2-3.4,5.4c2.5,1.2,3.8,3.2,3.8,5.9c0,1.4-0.4,2.5-1.1,3.5
		c-0.7,1-1.7,1.7-2.9,2.2S571.7,276.2,570.2,276.2z M567.1,272.4c0.8,0.6,1.8,1,3.1,1s2.3-0.3,3.1-1s1.1-1.5,1.1-2.7
		c0-1.1-0.4-2.1-1.2-2.8c-0.8-0.8-1.8-1.3-3-1.6c-1.3,0.3-2.3,0.9-3.1,1.6c-0.8,0.8-1.2,1.7-1.2,2.9
		C565.9,270.8,566.3,271.7,567.1,272.4z M570.2,262.8c1.3-0.3,2.3-0.8,3-1.5c0.7-0.7,1-1.7,1-2.8c0-0.9-0.4-1.7-1.1-2.3
		c-0.8-0.6-1.7-0.9-2.9-0.9c-1.1,0-2.1,0.3-2.9,0.9c-0.8,0.6-1.1,1.3-1.1,2.3c0,1.1,0.4,2.1,1.1,2.8
		C567.9,262,568.9,262.5,570.2,262.8z"/>
</g>
<g>
	<path class="st8" d="M572.2,138.4l-7.3-20h3.8l4.2,12.4c0.2,0.4,0.5,1.7,1.1,3.8c0-0.1,0.2-0.7,0.5-1.8c0.3-1.1,0.5-1.7,0.6-1.9
		c0.1-0.3,0.8-2.4,2.1-6.2c1.3-3.8,2-5.9,2.1-6.2h3.8l-7.2,20H572.2z"/>
	<path class="st8" d="M588.5,138.7c-1.4,0-2.5-0.4-3.4-1.2c-0.9-0.8-1.3-1.9-1.3-3.3c0-1.6,0.5-2.7,1.5-3.5c1-0.8,2.6-1.2,4.6-1.4
		c0.3,0,0.6-0.1,0.9-0.1c0.3,0,0.7-0.1,1.1-0.1c0.4,0,0.7-0.1,1-0.1v-0.8c0-0.9-0.2-1.6-0.6-2c-0.4-0.4-1.1-0.6-1.9-0.6
		c-1.2,0-2.7,0.3-4.5,1c0,0-0.2-0.4-0.5-1.2c-0.3-0.8-0.4-1.2-0.5-1.2c1.8-0.8,3.7-1.1,5.7-1.1c2,0,3.5,0.4,4.4,1.3
		c0.9,0.9,1.4,2.3,1.4,4.3v9.8h-2.7c0,0-0.1-0.3-0.3-0.9c-0.2-0.6-0.3-0.9-0.3-0.9c-0.7,0.7-1.5,1.3-2.2,1.6
		S589.5,138.7,588.5,138.7z M589.5,136.1c0.8,0,1.6-0.2,2.2-0.6c0.6-0.4,1.1-0.9,1.3-1.4v-2.9c0,0-0.3,0-0.7,0.1
		c-0.5,0-0.7,0.1-0.7,0.1c-1.4,0.1-2.5,0.4-3.2,0.8c-0.7,0.4-1,1.1-1,2c0,0.6,0.2,1.1,0.6,1.5C588.3,136,588.8,136.1,589.5,136.1z"
		/>
	<path class="st8" d="M605.4,138.6c-1,0-1.9-0.1-2.6-0.4s-1.2-0.6-1.6-1.2s-0.7-1.2-0.8-1.9c-0.2-0.7-0.2-1.6-0.2-2.7v-14.6l3.6-0.2
		v14.8c0,1.3,0.2,2.3,0.5,2.7c0.3,0.5,0.9,0.7,1.9,0.7c0.5,0,1,0,1.7-0.1l0.1,2.6c0,0-0.1,0-0.3,0.1c-0.2,0-0.4,0.1-0.6,0.1
		c-0.2,0-0.4,0.1-0.7,0.1C605.9,138.6,605.7,138.6,605.4,138.6z"/>
	<path class="st8" d="M620.6,137.2c-1.2,1-2.8,1.5-4.7,1.5s-3.5-0.5-4.7-1.5s-1.8-2.4-1.8-4.3v-9.6h3.6v9.4c0,1.1,0.2,1.9,0.7,2.4
		c0.5,0.5,1.2,0.8,2.2,0.8c1,0,1.7-0.2,2.2-0.7s0.7-1.3,0.7-2.4v-9.4h3.6v9.6C622.3,134.8,621.7,136.2,620.6,137.2z"/>
	<path class="st8" d="M632.6,138.7c-2.4,0-4.3-0.7-5.6-2.1c-1.3-1.4-2-3.3-2-5.8c0-2.4,0.6-4.3,1.9-5.7c1.3-1.4,3-2.1,5.2-2.1
		c2.1,0,3.7,0.6,4.8,1.9c1.1,1.3,1.7,3,1.7,5.2c0,0.2,0,0.4,0,0.8c0,0.3,0,0.6,0,0.8h-10c0,1.4,0.4,2.5,1.2,3.3
		c0.7,0.8,1.7,1.2,3,1.2c1.6,0,3.2-0.4,4.7-1.3l0.5,2.5C636.4,138.2,634.6,138.7,632.6,138.7z M628.6,129.4h6.6
		c0-1.2-0.3-2.2-0.8-2.8s-1.3-1-2.3-1c-0.9,0-1.7,0.3-2.3,1C629,127.2,628.7,128.1,628.6,129.4z"/>
	<path class="st8" d="M646.2,138.7c-2.2,0-4-0.4-5.3-1.1l0.4-2.7c0.6,0.3,1.4,0.6,2.3,0.9c0.9,0.3,1.8,0.4,2.5,0.4
		c0.8,0,1.4-0.1,1.9-0.4s0.7-0.7,0.7-1.3c0-0.5-0.2-0.9-0.6-1.2s-1.2-0.7-2.4-1.1c-0.4-0.1-0.7-0.2-0.8-0.3c-1.4-0.5-2.4-1.1-3-1.8
		s-0.9-1.6-0.9-2.7c0-1.4,0.5-2.4,1.5-3.1c1-0.7,2.4-1.1,4.1-1.1c1.9,0,3.6,0.4,5,1.1l-0.9,2.5c-1.4-0.7-2.8-1-4.1-1
		c-0.7,0-1.3,0.1-1.7,0.4c-0.4,0.2-0.6,0.6-0.6,1.1c0,0.5,0.2,0.8,0.6,1.1s1.2,0.6,2.3,1c0,0,0.2,0.1,0.4,0.1
		c0.2,0.1,0.4,0.1,0.5,0.2c1.4,0.5,2.4,1.1,3,1.8c0.6,0.7,1,1.6,1,2.7c0,1.5-0.5,2.7-1.5,3.5C649.5,138.3,648.1,138.7,646.2,138.7z"
		/>
	<path class="st3" d="M662.6,138.4v-20h12.1l-0.2,2.9h-8.3v5.2h7.9v2.9h-7.9v6h8.6l-0.1,3H662.6z"/>
	<path class="st8" d="M688.3,138.4l-4.5-15h3.6l2.9,11c0.1-0.2,0.6-2,1.6-5.4c1-3.4,1.5-5.3,1.7-5.6h3.7c0.1,0.4,0.6,2.2,1.6,5.6
		c0.9,3.3,1.4,5.1,1.5,5.4l3-11h3.6l-4.7,15h-3.6c-0.1-0.4-0.7-2.4-1.7-5.9c-1-3.6-1.5-5.5-1.6-5.8c-0.2,0.7-0.8,2.7-1.7,6
		c-1,3.3-1.5,5.2-1.7,5.7H688.3z"/>
	<path class="st8" d="M715.2,138.7c-2.2,0-4-0.7-5.2-2.2s-1.9-3.3-1.9-5.7c0-2.4,0.6-4.3,1.9-5.7s3.1-2.1,5.4-2.1
		c2.2,0,4,0.7,5.3,2.1s1.9,3.3,1.9,5.7c0,2.4-0.6,4.3-1.9,5.7C719.3,138,717.5,138.7,715.2,138.7z M715.3,136c1.2,0,2.1-0.4,2.7-1.3
		c0.6-0.9,0.9-2.1,0.9-3.8c0-1.7-0.3-2.9-0.9-3.8c-0.6-0.9-1.5-1.3-2.8-1.3c-1.2,0-2.1,0.4-2.7,1.3c-0.6,0.9-0.9,2.2-0.9,3.8
		c0,1.6,0.3,2.9,0.9,3.8C713.1,135.5,714.1,136,715.3,136z"/>
	<path class="st8" d="M736.3,137.2c-1.2,1-2.8,1.5-4.7,1.5s-3.5-0.5-4.7-1.5s-1.8-2.4-1.8-4.3v-9.6h3.6v9.4c0,1.1,0.2,1.9,0.7,2.4
		c0.5,0.5,1.2,0.8,2.2,0.8c1,0,1.7-0.2,2.2-0.7s0.7-1.3,0.7-2.4v-9.4h3.6v9.6C738.1,134.8,737.5,136.2,736.3,137.2z"/>
	<path class="st8" d="M746.6,138.6c-1,0-1.9-0.1-2.6-0.4s-1.2-0.6-1.6-1.2s-0.7-1.2-0.8-1.9c-0.2-0.7-0.2-1.6-0.2-2.7v-14.6l3.6-0.2
		v14.8c0,1.3,0.2,2.3,0.5,2.7c0.3,0.5,0.9,0.7,1.9,0.7c0.5,0,1,0,1.7-0.1l0.1,2.6c0,0-0.1,0-0.3,0.1c-0.2,0-0.4,0.1-0.6,0.1
		c-0.2,0-0.4,0.1-0.7,0.1C747.1,138.6,746.8,138.6,746.6,138.6z"/>
	<path class="st8" d="M756.4,138.7c-2,0-3.5-0.7-4.6-2.2c-1.1-1.4-1.7-3.4-1.7-5.8c0-2.3,0.6-4.2,1.7-5.6c1.1-1.4,2.7-2.1,4.6-2.1
		c2.1,0,3.6,0.8,4.5,2.3c-0.1-0.9-0.1-1.8-0.1-2.6v-4.9l3.6-0.2v20.8h-3.1l-0.4-2c-0.2,0.2-0.3,0.5-0.4,0.6s-0.3,0.4-0.6,0.6
		c-0.3,0.2-0.5,0.4-0.8,0.6c-0.3,0.1-0.7,0.3-1.1,0.4S756.9,138.7,756.4,138.7z M757.2,136c2.4,0,3.6-1.6,3.7-4.9
		c0-1.8-0.3-3.2-0.9-4c-0.6-0.8-1.5-1.3-2.8-1.3c-1.1,0-1.9,0.4-2.6,1.3c-0.6,0.9-1,2.1-1,3.8c0,1.7,0.3,2.9,1,3.8
		C755.3,135.5,756.1,136,757.2,136z"/>
	<path class="st8" d="M782,138.7c-2.3,0-4.1-0.7-5.4-2c-1.3-1.4-1.9-3.3-1.9-5.9c0-2.5,0.7-4.4,2-5.7s3.1-2,5.3-2
		c1.8,0,3.2,0.4,4.5,1.1l-0.8,2.6c-1.2-0.6-2.4-1-3.5-1c-1.2,0-2.2,0.4-2.9,1.3c-0.7,0.9-1,2.1-1,3.8c0,1.7,0.3,3,1,3.8
		c0.7,0.9,1.7,1.3,2.9,1.3c1.3,0,2.6-0.4,3.8-1.2l0.3,2.7c-0.6,0.4-1.3,0.7-2,0.9C783.7,138.6,782.9,138.7,782,138.7z"/>
	<path class="st8" d="M795.5,138.7c-2.2,0-4-0.7-5.2-2.2s-1.9-3.3-1.9-5.7c0-2.4,0.6-4.3,1.9-5.7s3.1-2.1,5.4-2.1
		c2.2,0,4,0.7,5.3,2.1s1.9,3.3,1.9,5.7c0,2.4-0.6,4.3-1.9,5.7C799.6,138,797.8,138.7,795.5,138.7z M795.6,136c1.2,0,2.1-0.4,2.7-1.3
		c0.6-0.9,0.9-2.1,0.9-3.8c0-1.7-0.3-2.9-0.9-3.8c-0.6-0.9-1.5-1.3-2.8-1.3c-1.2,0-2.1,0.4-2.7,1.3c-0.6,0.9-0.9,2.2-0.9,3.8
		c0,1.6,0.3,2.9,0.9,3.8C793.5,135.5,794.4,136,795.6,136z"/>
	<path class="st8" d="M805.8,138.4v-15h2.9l0.4,1.9c1.5-1.5,3.2-2.3,5.1-2.3c1.7,0,3.1,0.5,3.9,1.5c0.9,1,1.3,2.5,1.3,4.4v9.5h-3.6
		v-9.1c0-1.2-0.2-2.1-0.6-2.7c-0.4-0.6-1.1-0.9-2.1-0.9c-0.8,0-1.5,0.2-2.1,0.6c-0.6,0.4-1.1,0.9-1.4,1.5c-0.2,0.7-0.3,1.8-0.3,3.3
		v7.3H805.8z"/>
	<path class="st8" d="M827.7,138.7c-2.2,0-4-0.4-5.3-1.1l0.4-2.7c0.6,0.3,1.4,0.6,2.3,0.9c0.9,0.3,1.8,0.4,2.5,0.4
		c0.8,0,1.4-0.1,1.9-0.4s0.7-0.7,0.7-1.3c0-0.5-0.2-0.9-0.6-1.2s-1.2-0.7-2.4-1.1c-0.4-0.1-0.7-0.2-0.8-0.3c-1.4-0.5-2.4-1.1-3-1.8
		s-0.9-1.6-0.9-2.7c0-1.4,0.5-2.4,1.5-3.1c1-0.7,2.4-1.1,4.1-1.1c1.9,0,3.6,0.4,5,1.1l-0.9,2.5c-1.4-0.7-2.8-1-4.1-1
		c-0.7,0-1.3,0.1-1.7,0.4c-0.4,0.2-0.6,0.6-0.6,1.1c0,0.5,0.2,0.8,0.6,1.1s1.2,0.6,2.3,1c0,0,0.2,0.1,0.4,0.1
		c0.2,0.1,0.4,0.1,0.5,0.2c1.4,0.5,2.4,1.1,3,1.8c0.6,0.7,1,1.6,1,2.7c0,1.5-0.5,2.7-1.5,3.5C831,138.3,829.6,138.7,827.7,138.7z"/>
	<path class="st8" d="M836.4,121.2v-3.1h3.6v3.1H836.4z M836.4,138.4v-15h3.6v15H836.4z"/>
	<path class="st8" d="M849.3,138.7c-2,0-3.5-0.7-4.6-2.2c-1.1-1.4-1.7-3.4-1.7-5.8c0-2.3,0.6-4.2,1.7-5.6c1.1-1.4,2.7-2.1,4.6-2.1
		c2.1,0,3.6,0.8,4.5,2.3c-0.1-0.9-0.1-1.8-0.1-2.6v-4.9l3.6-0.2v20.8h-3.1l-0.4-2c-0.2,0.2-0.3,0.5-0.4,0.6s-0.3,0.4-0.6,0.6
		c-0.3,0.2-0.5,0.4-0.8,0.6c-0.3,0.1-0.7,0.3-1.1,0.4S849.9,138.7,849.3,138.7z M850.2,136c2.4,0,3.6-1.6,3.7-4.9
		c0-1.8-0.3-3.2-0.9-4c-0.6-0.8-1.5-1.3-2.8-1.3c-1.1,0-1.9,0.4-2.6,1.3c-0.6,0.9-1,2.1-1,3.8c0,1.7,0.3,2.9,1,3.8
		C848.2,135.5,849.1,136,850.2,136z"/>
	<path class="st8" d="M867.9,138.7c-2.4,0-4.3-0.7-5.6-2.1c-1.3-1.4-2-3.3-2-5.8c0-2.4,0.6-4.3,1.9-5.7c1.3-1.4,3-2.1,5.2-2.1
		c2.1,0,3.7,0.6,4.8,1.9c1.1,1.3,1.7,3,1.7,5.2c0,0.2,0,0.4,0,0.8c0,0.3,0,0.6,0,0.8h-10c0,1.4,0.4,2.5,1.2,3.3
		c0.7,0.8,1.7,1.2,3,1.2c1.6,0,3.2-0.4,4.7-1.3l0.5,2.5C871.8,138.2,870,138.7,867.9,138.7z M863.9,129.4h6.6c0-1.2-0.3-2.2-0.8-2.8
		s-1.3-1-2.3-1c-0.9,0-1.7,0.3-2.3,1C864.4,127.2,864,128.1,863.9,129.4z"/>
	<path class="st8" d="M876.8,138.4v-15h3l0.5,2.3c1-1.6,2.4-2.4,4.3-2.4c0.4,0,0.7,0,1,0.1l-0.1,3c-0.4-0.1-0.7-0.1-1.1-0.1
		c-1.3,0-2.3,0.4-3,1.1c-0.7,0.7-1,1.7-1,2.9v8.1H876.8z"/>
</g>
<g>
	<path class="st8" d="M59.5,138.4l-7.3-20H56l4.2,12.4c0.2,0.4,0.5,1.7,1.1,3.8c0-0.1,0.2-0.7,0.5-1.8c0.3-1.1,0.5-1.7,0.6-1.9
		c0.1-0.3,0.8-2.4,2.1-6.2c1.3-3.8,2-5.9,2.1-6.2h3.8l-7.2,20H59.5z"/>
	<path class="st8" d="M75.8,138.7c-1.4,0-2.5-0.4-3.4-1.2c-0.9-0.8-1.3-1.9-1.3-3.3c0-1.6,0.5-2.7,1.5-3.5c1-0.8,2.6-1.2,4.6-1.4
		c0.3,0,0.6-0.1,0.9-0.1c0.3,0,0.7-0.1,1.1-0.1c0.4,0,0.7-0.1,1-0.1v-0.8c0-0.9-0.2-1.6-0.6-2c-0.4-0.4-1.1-0.6-1.9-0.6
		c-1.2,0-2.7,0.3-4.5,1c0,0-0.2-0.4-0.5-1.2c-0.3-0.8-0.4-1.2-0.5-1.2c1.8-0.8,3.7-1.1,5.7-1.1c2,0,3.5,0.4,4.4,1.3
		c0.9,0.9,1.4,2.3,1.4,4.3v9.8h-2.7c0,0-0.1-0.3-0.3-0.9c-0.2-0.6-0.3-0.9-0.3-0.9c-0.7,0.7-1.5,1.3-2.2,1.6S76.8,138.7,75.8,138.7z
		 M76.7,136.1c0.8,0,1.6-0.2,2.2-0.6c0.6-0.4,1.1-0.9,1.3-1.4v-2.9c0,0-0.3,0-0.7,0.1c-0.5,0-0.7,0.1-0.7,0.1
		c-1.4,0.1-2.5,0.4-3.2,0.8c-0.7,0.4-1,1.1-1,2c0,0.6,0.2,1.1,0.6,1.5C75.5,136,76,136.1,76.7,136.1z"/>
	<path class="st8" d="M92.7,138.6c-1,0-1.9-0.1-2.6-0.4s-1.2-0.6-1.6-1.2s-0.7-1.2-0.8-1.9c-0.2-0.7-0.2-1.6-0.2-2.7v-14.6l3.6-0.2
		v14.8c0,1.3,0.2,2.3,0.5,2.7c0.3,0.5,0.9,0.7,1.9,0.7c0.5,0,1,0,1.7-0.1l0.1,2.6c0,0-0.1,0-0.3,0.1c-0.2,0-0.4,0.1-0.6,0.1
		c-0.2,0-0.4,0.1-0.7,0.1C93.2,138.6,92.9,138.6,92.7,138.6z"/>
	<path class="st8" d="M107.8,137.2c-1.2,1-2.8,1.5-4.7,1.5s-3.5-0.5-4.7-1.5s-1.8-2.4-1.8-4.3v-9.6h3.6v9.4c0,1.1,0.2,1.9,0.7,2.4
		c0.5,0.5,1.2,0.8,2.2,0.8c1,0,1.7-0.2,2.2-0.7s0.7-1.3,0.7-2.4v-9.4h3.6v9.6C109.6,134.8,109,136.2,107.8,137.2z"/>
	<path class="st8" d="M119.8,138.7c-2.4,0-4.3-0.7-5.6-2.1c-1.3-1.4-2-3.3-2-5.8c0-2.4,0.6-4.3,1.9-5.7c1.3-1.4,3-2.1,5.2-2.1
		c2.1,0,3.7,0.6,4.8,1.9c1.1,1.3,1.7,3,1.7,5.2c0,0.2,0,0.4,0,0.8c0,0.3,0,0.6,0,0.8h-10c0,1.4,0.4,2.5,1.2,3.3
		c0.7,0.8,1.7,1.2,3,1.2c1.6,0,3.2-0.4,4.7-1.3l0.5,2.5C123.7,138.2,121.9,138.7,119.8,138.7z M115.8,129.4h6.6
		c0-1.2-0.3-2.2-0.8-2.8s-1.3-1-2.3-1c-0.9,0-1.7,0.3-2.3,1C116.3,127.2,115.9,128.1,115.8,129.4z"/>
	<path class="st8" d="M133.5,138.7c-2.2,0-4-0.4-5.3-1.1l0.4-2.7c0.6,0.3,1.4,0.6,2.3,0.9c0.9,0.3,1.8,0.4,2.5,0.4
		c0.8,0,1.4-0.1,1.9-0.4s0.7-0.7,0.7-1.3c0-0.5-0.2-0.9-0.6-1.2s-1.2-0.7-2.4-1.1c-0.4-0.1-0.7-0.2-0.8-0.3c-1.4-0.5-2.4-1.1-3-1.8
		s-0.9-1.6-0.9-2.7c0-1.4,0.5-2.4,1.5-3.1c1-0.7,2.4-1.1,4.1-1.1c1.9,0,3.6,0.4,5,1.1l-0.9,2.5c-1.4-0.7-2.8-1-4.1-1
		c-0.7,0-1.3,0.1-1.7,0.4c-0.4,0.2-0.6,0.6-0.6,1.1c0,0.5,0.2,0.8,0.6,1.1s1.2,0.6,2.3,1c0,0,0.2,0.1,0.4,0.1
		c0.2,0.1,0.4,0.1,0.5,0.2c1.4,0.5,2.4,1.1,3,1.8c0.6,0.7,1,1.6,1,2.7c0,1.5-0.5,2.7-1.5,3.5C136.8,138.3,135.3,138.7,133.5,138.7z"
		/>
	<path class="st4" d="M149.9,138.4v-20h6.2c2.7,0,4.6,0.4,5.9,1.2c1.3,0.8,2,2.1,2,3.9c0,0.3,0,0.6-0.1,0.9c0,0.3-0.1,0.6-0.2,1
		c-0.1,0.4-0.3,0.7-0.5,1c-0.2,0.3-0.5,0.6-0.9,0.9c-0.4,0.3-0.8,0.5-1.3,0.6c1.2,0.3,2.2,0.9,2.8,1.7c0.7,0.9,1,1.9,1,3.1
		c0,1.9-0.7,3.3-2,4.3c-1.3,1-3.2,1.5-5.5,1.5H149.9z M153.6,126.6h3.2c2.5,0,3.7-0.9,3.7-2.8c0-1-0.4-1.8-1.1-2.2s-1.8-0.6-3.4-0.6
		h-2.4V126.6z M153.6,135.7h3.2c2.8,0,4.3-1.1,4.3-3.3c0-1.1-0.4-1.9-1.1-2.4c-0.7-0.5-1.8-0.7-3.3-0.7h-3.1V135.7z"/>
	<path class="st8" d="M178,138.4l-4.5-15h3.6l2.9,11c0.1-0.2,0.6-2,1.6-5.4c1-3.4,1.5-5.3,1.7-5.6h3.7c0.1,0.4,0.6,2.2,1.6,5.6
		c0.9,3.3,1.4,5.1,1.5,5.4l3-11h3.6l-4.7,15h-3.6c-0.1-0.4-0.7-2.4-1.7-5.9c-1-3.6-1.5-5.5-1.6-5.8c-0.2,0.7-0.8,2.7-1.7,6
		c-1,3.3-1.5,5.2-1.7,5.7H178z"/>
	<path class="st8" d="M204.9,138.7c-2.2,0-4-0.7-5.2-2.2s-1.9-3.3-1.9-5.7c0-2.4,0.6-4.3,1.9-5.7s3.1-2.1,5.4-2.1
		c2.2,0,4,0.7,5.3,2.1s1.9,3.3,1.9,5.7c0,2.4-0.6,4.3-1.9,5.7C209,138,207.2,138.7,204.9,138.7z M205,136c1.2,0,2.1-0.4,2.7-1.3
		c0.6-0.9,0.9-2.1,0.9-3.8c0-1.7-0.3-2.9-0.9-3.8c-0.6-0.9-1.5-1.3-2.8-1.3c-1.2,0-2.1,0.4-2.7,1.3c-0.6,0.9-0.9,2.2-0.9,3.8
		c0,1.6,0.3,2.9,0.9,3.8C202.9,135.5,203.8,136,205,136z"/>
	<path class="st8" d="M226,137.2c-1.2,1-2.8,1.5-4.7,1.5s-3.5-0.5-4.7-1.5s-1.8-2.4-1.8-4.3v-9.6h3.6v9.4c0,1.1,0.2,1.9,0.7,2.4
		c0.5,0.5,1.2,0.8,2.2,0.8c1,0,1.7-0.2,2.2-0.7s0.7-1.3,0.7-2.4v-9.4h3.6v9.6C227.8,134.8,227.2,136.2,226,137.2z"/>
	<path class="st8" d="M236.3,138.6c-1,0-1.9-0.1-2.6-0.4s-1.2-0.6-1.6-1.2s-0.7-1.2-0.8-1.9c-0.2-0.7-0.2-1.6-0.2-2.7v-14.6l3.6-0.2
		v14.8c0,1.3,0.2,2.3,0.5,2.7c0.3,0.5,0.9,0.7,1.9,0.7c0.5,0,1,0,1.7-0.1l0.1,2.6c0,0-0.1,0-0.3,0.1c-0.2,0-0.4,0.1-0.6,0.1
		c-0.2,0-0.4,0.1-0.7,0.1C236.8,138.6,236.6,138.6,236.3,138.6z"/>
	<path class="st8" d="M246.1,138.7c-2,0-3.5-0.7-4.6-2.2c-1.1-1.4-1.7-3.4-1.7-5.8c0-2.3,0.6-4.2,1.7-5.6c1.1-1.4,2.7-2.1,4.6-2.1
		c2.1,0,3.6,0.8,4.5,2.3c-0.1-0.9-0.1-1.8-0.1-2.6v-4.9l3.6-0.2v20.8H251l-0.4-2c-0.2,0.2-0.3,0.5-0.4,0.6s-0.3,0.4-0.6,0.6
		c-0.3,0.2-0.5,0.4-0.8,0.6c-0.3,0.1-0.7,0.3-1.1,0.4S246.7,138.7,246.1,138.7z M247,136c2.4,0,3.6-1.6,3.7-4.9c0-1.8-0.3-3.2-0.9-4
		c-0.6-0.8-1.5-1.3-2.8-1.3c-1.1,0-1.9,0.4-2.6,1.3c-0.6,0.9-1,2.1-1,3.8c0,1.7,0.3,2.9,1,3.8C245,135.5,245.9,136,247,136z"/>
	<path class="st8" d="M271.7,138.7c-2.3,0-4.1-0.7-5.4-2c-1.3-1.4-1.9-3.3-1.9-5.9c0-2.5,0.7-4.4,2-5.7s3.1-2,5.3-2
		c1.8,0,3.2,0.4,4.5,1.1l-0.8,2.6c-1.2-0.6-2.4-1-3.5-1c-1.2,0-2.2,0.4-2.9,1.3c-0.7,0.9-1,2.1-1,3.8c0,1.7,0.3,3,1,3.8
		c0.7,0.9,1.7,1.3,2.9,1.3c1.3,0,2.6-0.4,3.8-1.2l0.3,2.7c-0.6,0.4-1.3,0.7-2,0.9C273.4,138.6,272.6,138.7,271.7,138.7z"/>
	<path class="st8" d="M285.2,138.7c-2.2,0-4-0.7-5.2-2.2s-1.9-3.3-1.9-5.7c0-2.4,0.6-4.3,1.9-5.7s3.1-2.1,5.4-2.1
		c2.2,0,4,0.7,5.3,2.1s1.9,3.3,1.9,5.7c0,2.4-0.6,4.3-1.9,5.7C289.4,138,287.6,138.7,285.2,138.7z M285.3,136c1.2,0,2.1-0.4,2.7-1.3
		c0.6-0.9,0.9-2.1,0.9-3.8c0-1.7-0.3-2.9-0.9-3.8c-0.6-0.9-1.5-1.3-2.8-1.3c-1.2,0-2.1,0.4-2.7,1.3c-0.6,0.9-0.9,2.2-0.9,3.8
		c0,1.6,0.3,2.9,0.9,3.8C283.2,135.5,284.1,136,285.3,136z"/>
	<path class="st8" d="M295.5,138.4v-15h2.9l0.4,1.9c1.5-1.5,3.2-2.3,5.1-2.3c1.7,0,3.1,0.5,3.9,1.5c0.9,1,1.3,2.5,1.3,4.4v9.5h-3.6
		v-9.1c0-1.2-0.2-2.1-0.6-2.7c-0.4-0.6-1.1-0.9-2.1-0.9c-0.8,0-1.5,0.2-2.1,0.6c-0.6,0.4-1.1,0.9-1.4,1.5c-0.2,0.7-0.3,1.8-0.3,3.3
		v7.3H295.5z"/>
	<path class="st8" d="M317.4,138.7c-2.2,0-4-0.4-5.3-1.1l0.4-2.7c0.6,0.3,1.4,0.6,2.3,0.9c0.9,0.3,1.8,0.4,2.5,0.4
		c0.8,0,1.4-0.1,1.9-0.4s0.7-0.7,0.7-1.3c0-0.5-0.2-0.9-0.6-1.2s-1.2-0.7-2.4-1.1c-0.4-0.1-0.7-0.2-0.8-0.3c-1.4-0.5-2.4-1.1-3-1.8
		s-0.9-1.6-0.9-2.7c0-1.4,0.5-2.4,1.5-3.1c1-0.7,2.4-1.1,4.1-1.1c1.9,0,3.6,0.4,5,1.1l-0.9,2.5c-1.4-0.7-2.8-1-4.1-1
		c-0.7,0-1.3,0.1-1.7,0.4c-0.4,0.2-0.6,0.6-0.6,1.1c0,0.5,0.2,0.8,0.6,1.1s1.2,0.6,2.3,1c0,0,0.2,0.1,0.4,0.1
		c0.2,0.1,0.4,0.1,0.5,0.2c1.4,0.5,2.4,1.1,3,1.8c0.6,0.7,1,1.6,1,2.7c0,1.5-0.5,2.7-1.5,3.5C320.7,138.3,319.3,138.7,317.4,138.7z"
		/>
	<path class="st8" d="M326.2,121.2v-3.1h3.6v3.1H326.2z M326.2,138.4v-15h3.6v15H326.2z"/>
	<path class="st8" d="M339.1,138.7c-2,0-3.5-0.7-4.6-2.2c-1.1-1.4-1.7-3.4-1.7-5.8c0-2.3,0.6-4.2,1.7-5.6c1.1-1.4,2.7-2.1,4.6-2.1
		c2.1,0,3.6,0.8,4.5,2.3c-0.1-0.9-0.1-1.8-0.1-2.6v-4.9l3.6-0.2v20.8h-3.1l-0.4-2c-0.2,0.2-0.3,0.5-0.4,0.6s-0.3,0.4-0.6,0.6
		c-0.3,0.2-0.5,0.4-0.8,0.6c-0.3,0.1-0.7,0.3-1.1,0.4S339.6,138.7,339.1,138.7z M339.9,136c2.4,0,3.6-1.6,3.7-4.9
		c0-1.8-0.3-3.2-0.9-4c-0.6-0.8-1.5-1.3-2.8-1.3c-1.1,0-1.9,0.4-2.6,1.3c-0.6,0.9-1,2.1-1,3.8c0,1.7,0.3,2.9,1,3.8
		C337.9,135.5,338.8,136,339.9,136z"/>
	<path class="st8" d="M357.6,138.7c-2.4,0-4.3-0.7-5.6-2.1c-1.3-1.4-2-3.3-2-5.8c0-2.4,0.6-4.3,1.9-5.7c1.3-1.4,3-2.1,5.2-2.1
		c2.1,0,3.7,0.6,4.8,1.9c1.1,1.3,1.7,3,1.7,5.2c0,0.2,0,0.4,0,0.8c0,0.3,0,0.6,0,0.8h-10c0,1.4,0.4,2.5,1.2,3.3
		c0.7,0.8,1.7,1.2,3,1.2c1.6,0,3.2-0.4,4.7-1.3l0.5,2.5C361.5,138.2,359.7,138.7,357.6,138.7z M353.6,129.4h6.6
		c0-1.2-0.3-2.2-0.8-2.8s-1.3-1-2.3-1c-0.9,0-1.7,0.3-2.3,1C354.1,127.2,353.7,128.1,353.6,129.4z"/>
	<path class="st8" d="M366.5,138.4v-15h3l0.5,2.3c1-1.6,2.4-2.4,4.3-2.4c0.4,0,0.7,0,1,0.1l-0.1,3c-0.4-0.1-0.7-0.1-1.1-0.1
		c-1.3,0-2.3,0.4-3,1.1c-0.7,0.7-1,1.7-1,2.9v8.1H366.5z"/>
</g>
<g>
	<path class="st8" d="M497.7,275.8l6.9-19.7h-9.5l0-3.1h14.1v2.5l-7.4,20.4H497.7z"/>
</g>
<g>
	<path class="st8" d="M438.4,276.2c-2.5,0-4.6-0.7-6.2-2.1c-1.6-1.4-2.4-3.2-2.4-5.5c0-0.7,0.1-1.4,0.2-2.1c0.2-0.7,0.4-1.3,0.7-2
		s0.6-1.2,1-1.7c0.3-0.5,0.7-1.1,1.3-1.8l6.5-8.2h4.9l-7.1,9c0.8-0.3,1.4-0.4,1.9-0.4c2.2,0,4.1,0.7,5.5,2c1.4,1.3,2.1,3.1,2.1,5.2
		c0,2.2-0.8,4-2.3,5.4C442.9,275.5,440.9,276.2,438.4,276.2z M438.2,273c1.4,0,2.5-0.4,3.2-1.2s1.2-1.8,1.2-3.1
		c0-1.3-0.4-2.4-1.1-3.2s-1.8-1.2-3.3-1.2c-1.5,0-2.5,0.4-3.2,1.2c-0.7,0.8-1,1.9-1,3.2c0,1.3,0.4,2.3,1.1,3.1S436.9,273,438.2,273z
		"/>
</g>
<g>
	<path class="st8" d="M367.8,276.2c-1,0-2.1-0.2-3.2-0.5c-1.1-0.3-1.9-0.7-2.5-1c-0.6-0.3-1-0.5-1.1-0.7l1.3-2.9
		c0.2,0.2,0.5,0.4,0.9,0.6c0.4,0.2,1,0.5,1.8,0.8c0.9,0.3,1.7,0.5,2.5,0.5c1.5,0,2.6-0.4,3.3-1.2c0.8-0.8,1.1-1.9,1.1-3.2
		c0-1.2-0.3-2.2-1-3c-0.7-0.8-1.6-1.1-2.7-1.1c-1.3,0-2.5,0.6-3.5,1.7l-2.7-0.5l0.6-12.5H375l-0.2,3.2h-8.6c0,0.2,0,1.1-0.1,2.8
		c-0.1,1.7-0.1,2.6-0.1,2.8c0.9-0.5,1.9-0.7,2.9-0.7c2.1,0,3.8,0.7,5.1,2c1.3,1.4,1.9,3.1,1.9,5.3c0,2.3-0.7,4.2-2.1,5.6
		S370.3,276.2,367.8,276.2z"/>
</g>
<g>
	<path class="st8" d="M302.9,275.8v-5.1h-10.3V268l9.3-15h5.2v14.6h2.8l-0.2,3.1h-2.6v5.1H302.9z M296.7,267.7h6.3V257L296.7,267.7z
		"/>
</g>
<g>
	<path class="st8" d="M235.8,276.2c-1.3,0-2.6-0.2-3.8-0.5s-2.1-0.8-2.8-1.4l1.1-3c0.6,0.5,1.4,0.9,2.4,1.2s2.1,0.5,3.1,0.5
		c1.2,0,2.2-0.3,2.9-1c0.7-0.6,1.1-1.5,1.1-2.5c0-0.6-0.1-1.2-0.3-1.7c-0.2-0.5-0.5-0.8-0.8-1.1c-0.3-0.3-0.8-0.5-1.3-0.7
		c-0.6-0.2-1.1-0.3-1.7-0.4c-0.6-0.1-1.3-0.1-2.1-0.1c0,0-0.2,0-0.5,0c-0.3,0-0.4,0-0.5,0v-3.2h0.9c0.9,0,1.7,0,2.3-0.1
		c0.7-0.1,1.3-0.3,1.8-0.5c0.6-0.2,1-0.6,1.3-1c0.3-0.4,0.4-1,0.4-1.7c0-0.9-0.3-1.6-1-2.3c-0.7-0.6-1.6-0.9-2.8-0.9
		c-2,0-3.7,0.5-5.2,1.5l-1.1-3c1.9-1.2,4.2-1.8,6.8-1.8c2.2,0,4,0.6,5.3,1.7c1.4,1.1,2.1,2.6,2.1,4.4c0,1.3-0.3,2.3-1,3.2
		c-0.6,0.9-1.6,1.5-2.8,1.9c1.4,0.3,2.5,0.9,3.2,2c0.8,1.1,1.2,2.3,1.2,3.8c0,1.4-0.4,2.6-1.1,3.6c-0.7,1-1.7,1.8-2.9,2.2
		C238.7,275.9,237.3,276.2,235.8,276.2z"/>
</g>
<g>
	<path class="st8" d="M163.7,275.8l-0.1-3.4l7.2-8.2c0.9-1,1.6-1.8,2-2.7c0.4-0.8,0.6-1.7,0.6-2.6c0-1-0.3-1.8-1-2.4
		s-1.5-0.9-2.6-0.9c-1,0-1.9,0.2-2.9,0.5c-0.9,0.4-1.7,0.8-2.3,1.4l-1.2-3.1c1.6-1.4,3.8-2.1,6.6-2.1c2.3,0,4.1,0.6,5.4,1.7
		c1.4,1.1,2.1,2.7,2.1,4.8c0,1.5-0.4,2.9-1.2,4.2c-0.8,1.3-1.8,2.7-3.2,4.1l-5.2,5.5h9.3l-0.3,3.1H163.7z"/>
</g>
<g>
	<path class="st8" d="M101.6,275.8v-19.1c-0.1,0.1-0.8,0.4-2,0.9c-1.2,0.5-1.9,0.8-2,0.8v-3.1c0.3-0.1,1-0.5,2.4-1.2
		s2.1-1.1,2.2-1.2h3.4v22.8H101.6z"/>
</g>
<g>
	<path class="st8" d="M632.5,275.8l7-9c-0.7,0.2-1.3,0.4-1.9,0.4c-2.2,0-4.1-0.7-5.5-2s-2.1-3.1-2.1-5.3c0-2.2,0.8-4,2.3-5.4
		c1.6-1.3,3.6-2,6-2c2.6,0,4.6,0.7,6.2,2.1c1.6,1.4,2.4,3.2,2.4,5.5c0,1.3-0.3,2.5-0.8,3.6s-1.2,2.3-2.2,3.6l-6.5,8.6H632.5z
		 M638.5,264.3c1.5,0,2.5-0.4,3.2-1.2c0.7-0.8,1-1.9,1-3.3c0-1.3-0.4-2.3-1.1-3.1c-0.7-0.8-1.8-1.1-3.1-1.1c-1.4,0-2.5,0.4-3.3,1.2
		c-0.8,0.8-1.2,1.8-1.2,3.1c0,1.4,0.4,2.4,1.1,3.2C635.9,263.9,637,264.3,638.5,264.3z"/>
</g>
<g>
	<path class="st8" d="M694.6,275.8v-19.1c-0.1,0.1-0.8,0.4-2,0.9c-1.2,0.5-1.9,0.8-2,0.8v-3.1c0.3-0.1,1-0.5,2.4-1.2
		s2.1-1.1,2.2-1.2h3.4v22.8H694.6z"/>
	<path class="st8" d="M714.1,275.5c-1,0.4-2.1,0.6-3.3,0.6s-2.4-0.2-3.4-0.6s-1.8-1-2.5-1.7s-1.2-1.6-1.6-2.6
		c-0.4-1-0.7-2.1-0.9-3.2c-0.2-1.1-0.3-2.3-0.3-3.6c0-1.3,0.1-2.5,0.3-3.7c0.2-1.1,0.5-2.2,0.9-3.2s1-1.9,1.6-2.6
		c0.7-0.7,1.5-1.3,2.5-1.7s2.1-0.6,3.3-0.6s2.3,0.2,3.3,0.6s1.8,1,2.4,1.7c0.6,0.7,1.2,1.6,1.6,2.6c0.4,1,0.7,2.1,0.9,3.2
		c0.2,1.1,0.3,2.4,0.3,3.7c0,1.3-0.1,2.5-0.3,3.6c-0.2,1.1-0.5,2.2-0.9,3.2c-0.4,1-1,1.9-1.6,2.6
		C715.9,274.5,715.1,275.1,714.1,275.5z M708.6,272.2c0.6,0.5,1.3,0.7,2.1,0.7s1.5-0.2,2.1-0.7c0.6-0.5,1-1.1,1.3-2
		c0.3-0.9,0.5-1.8,0.7-2.7c0.1-1,0.2-2,0.2-3.2c0-5.7-1.5-8.5-4.4-8.5c-2.9,0-4.3,2.8-4.4,8.4c0,1.2,0.1,2.3,0.2,3.2
		s0.4,1.9,0.7,2.7C707.6,271,708,271.7,708.6,272.2z"/>
</g>
<g>
	<path class="st8" d="M765.8,275.8v-19.1c-0.1,0.1-0.8,0.4-2,0.9c-1.2,0.5-1.9,0.8-2,0.8v-3.1c0.3-0.1,1-0.5,2.4-1.2
		s2.1-1.1,2.2-1.2h3.4v22.8H765.8z"/>
	<path class="st8" d="M776.5,275.8v-19.1c-0.1,0.1-0.8,0.4-2,0.9c-1.2,0.5-1.9,0.8-2,0.8v-3.1c0.3-0.1,1-0.5,2.4-1.2
		s2.1-1.1,2.2-1.2h3.4v22.8H776.5z"/>
</g>
<g>
	<path class="st8" d="M828.9,275.8v-19.1c-0.1,0.1-0.8,0.4-2,0.9c-1.2,0.5-1.9,0.8-2,0.8v-3.1c0.3-0.1,1-0.5,2.4-1.2
		s2.1-1.1,2.2-1.2h3.4v22.8H828.9z"/>
	<path class="st8" d="M836.3,275.8l-0.1-3.4l7.2-8.2c0.9-1,1.6-1.8,2-2.7c0.4-0.8,0.6-1.7,0.6-2.6c0-1-0.3-1.8-1-2.4
		s-1.5-0.9-2.6-0.9c-1,0-1.9,0.2-2.9,0.5c-0.9,0.4-1.7,0.8-2.3,1.4l-1.2-3.1c1.6-1.4,3.8-2.1,6.6-2.1c2.3,0,4.1,0.6,5.4,1.7
		c1.4,1.1,2.1,2.7,2.1,4.8c0,1.5-0.4,2.9-1.2,4.2c-0.8,1.3-1.8,2.7-3.2,4.1l-5.2,5.5h9.3l-0.3,3.1H836.3z"/>
</g>
<circle class="st4" cx="370" cy="166.9" r="11.3"/>
<circle class="st3" cx="570.6" cy="166.9" r="11.3"/>
<g>
	<line class="st0" x1="886.3" y1="147.7" x2="902.5" y2="163.9"/>
	<line class="st0" x1="886.3" y1="180.1" x2="902.5" y2="163.9"/>
</g>
<g>
	<line class="st5" x1="51.3" y1="223" x2="901.2" y2="223"/>
	<line class="st5" x1="303" y1="204.3" x2="303" y2="241.3"/>
	<line class="st5" x1="236.1" y1="204.3" x2="236.1" y2="241.3"/>
	<line class="st5" x1="169.3" y1="204.3" x2="169.3" y2="241.3"/>
	<line class="st5" x1="102.4" y1="204.3" x2="102.4" y2="241.3"/>
	<line class="st5" x1="837.9" y1="204" x2="837.9" y2="241.1"/>
	<line class="st5" x1="771" y1="204" x2="771" y2="241.1"/>
	<line class="st5" x1="704.2" y1="204" x2="704.2" y2="241.1"/>
	<line class="st5" x1="637.3" y1="204" x2="637.3" y2="241.1"/>
	<line class="st5" x1="570.6" y1="204" x2="570.6" y2="241.1"/>
	<line class="st5" x1="503.7" y1="204" x2="503.7" y2="241.1"/>
	<line class="st5" x1="436.8" y1="204" x2="436.8" y2="241.1"/>
	<line class="st5" x1="370" y1="204" x2="370" y2="241.1"/>
	<g>
		<line class="st5" x1="885.9" y1="206.8" x2="902.1" y2="223"/>
		<line class="st5" x1="885.9" y1="239.2" x2="902.1" y2="223"/>
	</g>
	<g>
		<line class="st5" x1="65.4" y1="239.2" x2="49.2" y2="223"/>
		<line class="st5" x1="65.4" y1="206.8" x2="49.2" y2="223"/>
	</g>
</g>
<g>
	<line class="st6" x1="63.6" y1="183.1" x2="47.4" y2="166.9"/>
	<line class="st6" x1="63.6" y1="150.7" x2="47.4" y2="166.9"/>
</g>
</svg>
