<?xml version="1.0" encoding="utf-8"?>
<!-- Generator: Adobe Illustrator 23.0.3, SVG Export Plug-In . SVG Version: 6.00 Build 0)  -->
<svg version="1.1" xmlns="http://www.w3.org/2000/svg" xmlns:xlink="http://www.w3.org/1999/xlink" x="0px" y="0px"
	 viewBox="0 0 1642.9 1138.4" style="enable-background:new 0 0 1642.9 1138.4;" xml:space="preserve">
<style type="text/css">
	.st0{display:none;}
	.st1{fill:none;stroke:#FA4359;stroke-width:6;stroke-miterlimit:10;}
	.st2{fill:none;stroke:#FA4359;stroke-width:6;stroke-linecap:round;stroke-linejoin:round;stroke-miterlimit:10;}
	.st3{fill:#FFFFFF;}
	.st4{fill:#FA4359;}
</style>
<g id="Layer_2">
</g>
<g id="Layer_1" class="st0">
	
		<image style="display:inline;overflow:visible;" width="1280" height="960" xlink:href="../k.png"  transform="matrix(1.1593 0 0 1.1593 98.863 -16.4806)">
	</image>
</g>
<g id="Layer_3">
	<rect x="283.8" y="115.8" class="st1" width="1152" height="857.3"/>
	<polyline class="st2" points="336.2,905.6 341.8,724.2 346.8,875.4 351.3,662.8 357.4,936.3 363.6,874.9 368.6,934 374.7,900 
		378.6,813.5 384.8,773.3 387,725.8 395.9,724.2 398.7,603.1 406,754.9 415.5,513.8 422.2,666.1 427.2,665.6 436.1,577.9 442.8,516 
		452.3,457.4 457.3,303.9 462.4,393.8 470.7,397.1 474.1,426.1 478,514.9 483.6,365.3 489.7,423.9 500.3,336.8 505.3,394.3 
		512.6,364.7 522.1,457.4 528.8,516.5 531.6,476.4 537.1,396 541.6,420 547.8,394.9 553.9,424.4 565.1,425 569.5,363.1 575.1,455.7 
		579.6,303.9 585.7,302.8 591.3,273.8 601.3,332.4 605.2,425 617,425 621.4,365.3 627,424.4 632.6,395.4 637.6,395.4 642.1,366.4 
		648.8,421.7 653.8,365.8 658.8,392.1 663.8,336.3 670,335.1 673.3,304.4 680.6,305 685.6,214.6 691.8,214.6 696.8,244.2 700.1,185 
		705.1,214 710.2,183.3 716.9,247 723,154.9 727.5,215.7 733.6,215.7 737.5,184.4 744.2,215.1 749.2,183.3 753.1,241.4 758.7,215.1 
		764.3,275.4 769.9,244.2 774.4,302.8 778.8,215.7 785.5,306.1 791.7,272.6 796.1,366.4 801.7,335.7 806.2,363.6 812.9,334.6 
		822.4,394.9 830.2,358 831.3,302.8 838.5,334.6 843,275.4 849.1,332.4 853.6,303.3 858.6,334.6 875.9,335.1 884.9,273.2 
		891.6,304.4 895.5,274.9 901.6,304.4 906.6,304.4 912.2,274.3 916.1,334.6 927.8,334.6 932.9,273.8 939,365.8 943.5,332.4 
		951.3,332.4 955.8,397.1 960.8,397.1 970.3,302.8 976.4,365.3 980.9,303.3 993.1,363.6 1007.1,272.1 1017.7,363.6 1023.8,303.9 
		1038.9,452.9 1045.1,424.4 1050.1,424.4 1054,454 1061.2,454.6 1064,422.2 1071.8,456.3 1080.8,365.8 1086.4,396 1092.5,396 
		1096.4,453.5 1102,422.2 1108.7,455.7 1119.8,455.7 1123.8,424.4 1131,485.8 1133.2,364.7 1140.5,396 1143.8,363.6 1152.8,363.6 
		1157.2,334.6 1164.5,334 1167.8,302.2 1174.5,332.4 1182.9,334 1185.7,394.9 1193,362.5 1195.8,393.8 1201.9,364.2 1209.1,425 
		1211.9,363.6 1220.9,393.2 1236.5,393.8 1250.4,332.9 1260.5,393.8 1269.4,335.1 1277.8,365.3 1282.8,332.4 1287.8,364.7 
		1292.3,335.1 1299,365.3 1301.8,335.1 1309.1,335.1 1313.5,303.9 1339.7,304.4 1344.2,334.6 1372.1,334.6 1377.1,427.2 
		1382.7,363.6 	"/>
	<line class="st2" x1="273.3" y1="150.6" x2="283.8" y2="150.6"/>
	<line class="st2" x1="273.3" y1="260.6" x2="283.8" y2="260.6"/>
	<line class="st2" x1="273.3" y1="369.8" x2="283.8" y2="369.8"/>
	<line class="st2" x1="273.3" y1="479.9" x2="283.8" y2="479.9"/>
	<line class="st2" x1="273.3" y1="589.9" x2="283.8" y2="589.9"/>
	<line class="st2" x1="273.3" y1="698.8" x2="283.8" y2="698.8"/>
	<line class="st2" x1="273.3" y1="809.1" x2="283.8" y2="809.1"/>
	<line class="st2" x1="273.3" y1="918.1" x2="283.8" y2="918.1"/>
	<line class="st2" x1="331.8" y1="973.9" x2="331.8" y2="984.3"/>
	<line class="st2" x1="462.7" y1="973.9" x2="462.7" y2="984.3"/>
	<line class="st2" x1="595" y1="973.9" x2="595" y2="984.3"/>
	<line class="st2" x1="726.8" y1="973.9" x2="726.8" y2="984.3"/>
	<line class="st2" x1="859.4" y1="973.9" x2="859.4" y2="984.3"/>
	<line class="st2" x1="991.4" y1="973.9" x2="991.4" y2="984.3"/>
	<line class="st2" x1="1123.5" y1="973.9" x2="1123.5" y2="984.3"/>
	<line class="st2" x1="1256" y1="973.9" x2="1256" y2="984.3"/>
	<line class="st2" x1="1386.5" y1="973.9" x2="1386.5" y2="984.3"/>
	<g>
		<path class="st3" d="M530.3,65.1l-12.3-32.5h6.7l8.7,24.4l8.3-24.4h6.5l-11.9,32.5H530.3z"/>
		<path class="st3" d="M556.9,65.6c-4.5,0-7.5-2.6-7.5-6.9c0-6.1,4.2-7,12.1-8.2l1.7-0.3v-1.1c0-2.8-0.2-4-3.5-4.1h-0.3
			c-2.3,0-6.3,1.3-7.4,1.7l-1.2-4.6c2.2-1,5.2-1.7,9.2-1.8h0.6c5.5,0,9.1,2.6,9.1,7.8v17h-4.9l-0.6-2.6
			C562,64.3,559.9,65.6,556.9,65.6z M563.2,59.5v-5.7l-1.7,0.3c-3.5,0.5-6.4,1.1-6.4,4.4c0,1.7,1,3,2.9,3
			C560.2,61.5,561.5,60.7,563.2,59.5z"/>
		<path class="st3" d="M580.8,55.8c0,3.6,0.3,4.9,3.7,4.9c1.1,0,1.3-0.1,1.3-0.1l0.3,4.6c0,0-1.2,0.3-3.3,0.3
			c-7.2,0-8.4-4.4-8.4-10.5v-23l6.3-0.4V55.8z"/>
		<path class="st3" d="M595.8,37.2h-6.4v-5.2h6.4V37.2z M595.7,65.1h-6.3V41.3h6.3V65.1z"/>
		<path class="st3" d="M617.6,61.8c-1.1,2.2-3.3,3.8-6.8,3.8h-0.3c-6.9-0.1-10.6-5.6-10.6-12.7c0-6.7,3.8-12.5,10.8-12.5
			c4,0,6.1,1.9,6.9,3.6V31.5h6.3v33.6h-6.2L617.6,61.8z M617.7,53c0-6.1-2.9-8-5.8-8c-2.8,0-5.9,1.6-5.9,8c0,6.1,3.1,7.9,5.9,7.9
			C614.8,60.9,617.7,59.2,617.7,53z"/>
		<path class="st3" d="M635.2,65.6c-4.5,0-7.5-2.6-7.5-6.9c0-6.1,4.2-7,12.1-8.2l1.7-0.3v-1.1c0-2.8-0.2-4-3.5-4.1h-0.3
			c-2.3,0-6.3,1.3-7.4,1.7l-1.2-4.6c2.2-1,5.2-1.7,9.2-1.8h0.6c5.5,0,9.1,2.6,9.1,7.8v17h-4.9l-0.6-2.6
			C640.3,64.3,638.3,65.6,635.2,65.6z M641.5,59.5v-5.7l-1.7,0.3c-3.5,0.5-6.4,1.1-6.4,4.4c0,1.7,1,3,2.9,3
			C638.6,61.5,639.8,60.7,641.5,59.5z"/>
		<path class="st3" d="M660,55.3c0,4,0.2,5.3,3.7,5.3c0.1,0,2-0.1,2-0.1l0.4,4.7c0,0-2.3,0.3-3.6,0.3c-7.4,0-8.9-3.5-8.9-10.5v-9.8
			h-4.1l0.4-3.8h3.8l1.6-8.7h4.8v8.7h5.9v3.8H660V55.3z"/>
		<path class="st3" d="M676.8,37.2h-6.4v-5.2h6.4V37.2z M676.7,65.1h-6.3V41.3h6.3V65.1z"/>
		<path class="st3" d="M704.3,53c0,7.3-4,12.6-11.8,12.6s-11.8-5.3-11.8-12.6c0-7.4,4-12.7,11.8-12.7S704.3,45.6,704.3,53z
			 M698.3,53c0-5.3-2.3-8-5.7-8s-5.7,2.7-5.7,8c0,5.2,2.3,7.9,5.7,7.9S698.3,58.2,698.3,53z"/>
		<path class="st3" d="M720.2,45c-2.3,0-4.8,1.9-5.8,3.8v16.3H708V41.3h5.3l0.5,3.2c1.9-2.2,4.9-4.1,8.5-4.1
			c5.8,0.1,8.3,4.4,8.3,10.3v14.5h-6.4V51.2C724.2,47.9,724,45,720.2,45z"/>
		<path class="st3" d="M762.2,55.2h-9.6l-3.5,10h-6.6l0.9-2.7l10.9-29.8h6.3l10.6,29.8l0.9,2.7h-6.3L762.2,55.2z M760.6,51.1
			l-3.2-11l-3.4,11H760.6z"/>
		<path class="st3" d="M791.2,59.2l1.2,4.3c-2.1,1.4-4,2.1-6.9,2.1h-0.1c-7,0-12.2-4.2-12.2-12.9c0-8.3,5.7-12.3,11.7-12.3h0.2
			c3.3,0,5.2,0.8,7,2.2l-1,4.2c-1-0.7-3.3-1.7-5.4-1.7c-3.5,0-6.4,2.3-6.4,7.9c0,5.8,2.6,8.1,6.5,8.1C788,61,789.9,60.1,791.2,59.2z
			"/>
		<path class="st3" d="M812.4,59.2l1.2,4.3c-2.1,1.4-4,2.1-6.9,2.1h-0.1c-7,0-12.2-4.2-12.2-12.9c0-8.3,5.7-12.3,11.7-12.3h0.2
			c3.3,0,5.2,0.8,7,2.2l-1,4.2c-1-0.7-3.3-1.7-5.4-1.7c-3.5,0-6.4,2.3-6.4,7.9c0,5.8,2.6,8.1,6.5,8.1
			C809.3,61,811.1,60.1,812.4,59.2z"/>
		<path class="st3" d="M816.2,41.3h6.3v15.1c0,3.4,1.7,4.6,4.5,4.6c2.8,0,4.6-1.2,4.6-4.6V41.3h6.4v15.2c0,6.2-4.5,9.1-10.9,9.1
			c-6.4,0-10.9-2.9-10.9-9.1V41.3z"/>
		<path class="st3" d="M855.4,41.3l0.3,4.8h-1.7c-4.5,0-5.3,2.3-5.3,5.9v13.2h-6.3V41.3h5.9l0.5,3.3c1.5-2.1,3.1-3.3,6.1-3.3H855.4z
			"/>
		<path class="st3" d="M864.1,65.6c-4.5,0-7.5-2.6-7.5-6.9c0-6.1,4.2-7,12.1-8.2l1.7-0.3v-1.1c0-2.8-0.2-4-3.5-4.1h-0.3
			c-2.3,0-6.3,1.3-7.4,1.7l-1.2-4.6c2.2-1,5.2-1.7,9.2-1.8h0.6c5.5,0,9.1,2.6,9.1,7.8v17H872l-0.6-2.6
			C869.2,64.3,867.2,65.6,864.1,65.6z M870.4,59.5v-5.7l-1.7,0.3c-3.5,0.5-6.4,1.1-6.4,4.4c0,1.7,1,3,2.9,3
			C867.4,61.5,868.7,60.7,870.4,59.5z"/>
		<path class="st3" d="M898.5,59.2l1.2,4.3c-2.1,1.4-4,2.1-6.9,2.1h-0.1c-7,0-12.2-4.2-12.2-12.9c0-8.3,5.7-12.3,11.7-12.3h0.2
			c3.3,0,5.2,0.8,7,2.2l-1,4.2c-1-0.7-3.3-1.7-5.4-1.7c-3.5,0-6.4,2.3-6.4,7.9c0,5.8,2.6,8.1,6.5,8.1
			C895.4,61,897.3,60.1,898.5,59.2z"/>
		<path class="st3" d="M909.5,64.4l-9.6-23.1h6.4l6.3,15.9l5.4-15.9h6.6l-9.8,25.5c-2.4,6.2-5,7.6-10.2,7.6h-3.1l-0.6-4.6h1.7
			C906.8,69.8,907.9,70.1,909.5,64.4z"/>
		<path class="st3" d="M943.5,65.6c-4.5,0-7.5-2.6-7.5-6.9c0-6.1,4.2-7,12.1-8.2l1.7-0.3v-1.1c0-2.8-0.2-4-3.5-4.1H946
			c-2.3,0-6.3,1.3-7.4,1.7l-1.2-4.6c2.2-1,5.2-1.7,9.2-1.8h0.6c5.5,0,9.1,2.6,9.1,7.8v17h-4.9l-0.6-2.6
			C948.6,64.3,946.6,65.6,943.5,65.6z M949.8,59.5v-5.7l-1.7,0.3c-3.5,0.5-6.4,1.1-6.4,4.4c0,1.7,1,3,2.9,3
			C946.8,61.5,948.1,60.7,949.8,59.5z"/>
		<path class="st3" d="M975.8,46.4c-1.6-0.9-4.6-1.5-6.4-1.5c-2.6,0-3.6,0.6-3.7,2c-0.1,1.7,0.6,2.1,2.7,2.8L972,51
			c2.9,1,5.9,3.2,5.9,6.9c0,4-2.6,7.7-8.2,7.7c-4.5,0-7.7-0.7-10-2.4l1.2-4.1c2,1.3,5.7,2,8,2c1.8,0,3.2-0.7,3.2-2.4
			c0-1.4-0.5-1.9-2.3-2.6l-3.6-1.3c-3.5-1.3-6.2-3-6.2-7c0-5,3.7-7.3,8.8-7.3c3.4,0,6.1,0.6,8.1,1.9L975.8,46.4z"/>
		<path class="st3" d="M997.5,31.5v18.8l8.9-9.1h7.6l-9.5,9.8l10.6,14.1h-7.8l-8.1-11.6l-1.7,1.2v10.4h-6.4V31.5H997.5z"/>
		<path class="st3" d="M1043.2,59.2l1.2,4.3c-2.1,1.4-4,2.1-6.9,2.1h-0.1c-7,0-12.2-4.2-12.2-12.9c0-8.3,5.7-12.3,11.7-12.3h0.2
			c3.3,0,5.2,0.8,7,2.2l-1,4.2c-1-0.7-3.3-1.7-5.4-1.7c-3.5,0-6.4,2.3-6.4,7.9c0,5.8,2.6,8.1,6.5,8.1
			C1040,61,1041.9,60.1,1043.2,59.2z"/>
		<path class="st3" d="M1047.2,65.1V31.5h6.4v12.4c2-2,4.6-3.5,7.7-3.5c4.5,0,8.5,2.7,8.5,10.3v14.5h-6.4V50.8
			c0-3.5-0.6-5.8-3.6-5.8c-2.7,0-5,2.1-6.2,4v16.1H1047.2z"/>
		<path class="st3" d="M1080.9,65.6c-4.5,0-7.5-2.6-7.5-6.9c0-6.1,4.2-7,12.1-8.2l1.7-0.3v-1.1c0-2.8-0.2-4-3.5-4.1h-0.3
			c-2.3,0-6.3,1.3-7.4,1.7l-1.2-4.6c2.2-1,5.2-1.7,9.2-1.8h0.6c5.5,0,9.1,2.6,9.1,7.8v17h-4.9l-0.6-2.6
			C1086,64.3,1084,65.6,1080.9,65.6z M1087.2,59.5v-5.7l-1.7,0.3c-3.5,0.5-6.4,1.1-6.4,4.4c0,1.7,1,3,2.9,3
			C1084.2,61.5,1085.5,60.7,1087.2,59.5z"/>
		<path class="st3" d="M1110.4,45c-2.3,0-4.8,1.9-5.8,3.8v16.3h-6.4V41.3h5.3l0.5,3.2c1.9-2.2,4.9-4.1,8.5-4.1
			c5.8,0.1,8.3,4.4,8.3,10.3v14.5h-6.4V51.2C1114.3,47.9,1114.1,45,1110.4,45z"/>
		<path class="st3" d="M1130.7,76.1l-0.5-4.9h2.5c6.8,0,9.4,0,9.4-7.3v-1.9c-1.2,1.7-2.9,3.2-6.8,3.2c-6.1,0-11.1-4.5-11.1-12.3
			c0-8.3,5.5-12.5,10.8-12.5h0c3.7,0,5.8,1.4,7.1,3.3v-2.3h6.3v22.4c0,8.6-3.3,12.4-14.7,12.4H1130.7z M1136.6,60.5
			c3.4,0,5.9-2.9,5.9-7.6c0-4.9-2.5-7.8-5.9-7.8h-0.1c-4,0-6.1,3-6.1,7.8c0,4.5,2.5,7.6,6,7.6H1136.6z"/>
		<path class="st3" d="M1158.5,54.5c0.1,4.4,2.6,6.5,6.7,6.5c2.9,0,5.4-1.1,6.9-2.1l1.7,3.9c-2.1,1.6-4.8,2.8-8.8,2.8
			c-8.3,0-12.7-4.9-12.7-12.6c0-7,4.3-12.7,11.7-12.7c7.3,0,10.6,5.8,10.6,12.1v0.1c0,0.6,0,1.2,0,1.8v0.1H1158.5z M1168.7,51.1
			v-0.2c0-3.9-1.7-5.8-4.7-5.8c-2.1,0-5.2,1.2-5.5,6H1168.7z"/>
		<path class="st3" d="M1193,46.4c-1.6-0.9-4.6-1.5-6.4-1.5c-2.6,0-3.6,0.6-3.7,2c-0.1,1.7,0.6,2.1,2.7,2.8l3.7,1.3
			c2.9,1,5.9,3.2,5.9,6.9c0,4-2.6,7.7-8.2,7.7c-4.5,0-7.7-0.7-10-2.4l1.2-4.1c2,1.3,5.7,2,8,2c1.8,0,3.2-0.7,3.2-2.4
			c0-1.4-0.5-1.9-2.3-2.6l-3.6-1.3c-3.5-1.3-6.2-3-6.2-7c0-5,3.7-7.3,8.8-7.3c3.4,0,6.1,0.6,8.1,1.9L1193,46.4z"/>
	</g>
	<g>
		<path class="st4" d="M185.4,152.6c0-8.1,2.9-13.6,9-13.6c6.1,0,9,5.5,9,13.6c0,7.7-2.6,13.6-9,13.6
			C188,166.2,185.4,160.3,185.4,152.6z M188.8,152.5c0,6.4,2,11.1,5.7,11.1c3.7,0,5.6-4.7,5.6-11.1c0-6.3-1.9-10.8-5.6-10.8
			C190.8,141.7,188.8,146.2,188.8,152.5z"/>
		<path class="st4" d="M209.8,166c-1.5,0-2.3-1.2-2.3-2.3s0.8-2.3,2.3-2.3s2.3,1.2,2.3,2.3S211.4,166,209.8,166z"/>
		<path class="st4" d="M227.6,142.2h-11.8l0.2-2.7h15.3v2.4l-9.4,23.9h-3.2L227.6,142.2z"/>
		<path class="st4" d="M238.1,153.1v-2.6c4,0,7.8-0.5,7.8-4.6c0-2.9-1.7-4.2-4.8-4.2c-2.4,0-4.5,0.8-5.9,1.9l-1-2.6
			c1.6-1.2,3.9-2,7.6-2c3.9,0,7.5,2.3,7.5,6.5c0,3.4-1.8,5.4-4.6,6.3c3.2,0.7,5.3,3.1,5.3,6.8c0,4.7-3.7,7.6-8.9,7.6
			c-3.4,0-5.9-1.1-6.9-2l1-2.6c1.3,1,3.2,1.9,5.8,1.9c3.5,0,5.8-1.8,5.8-5C246.9,153.8,243,153.1,238.1,153.1z"/>
	</g>
	<g>
		<path class="st4" d="M185.4,262.2c0-8.1,2.9-13.6,9-13.6c6.1,0,9,5.5,9,13.6c0,7.7-2.6,13.6-9,13.6
			C188,275.8,185.4,269.9,185.4,262.2z M188.8,262.1c0,6.4,2,11.1,5.7,11.1c3.7,0,5.6-4.7,5.6-11.1c0-6.3-1.9-10.8-5.6-10.8
			C190.8,251.3,188.8,255.9,188.8,262.1z"/>
		<path class="st4" d="M209.8,275.7c-1.5,0-2.3-1.2-2.3-2.3s0.8-2.3,2.3-2.3s2.3,1.2,2.3,2.3S211.4,275.7,209.8,275.7z"/>
		<path class="st4" d="M227.6,251.9h-11.8l0.2-2.7h15.3v2.4l-9.4,23.9h-3.2L227.6,251.9z"/>
		<path class="st4" d="M242.1,248.6c4.8,0,7.8,2.8,7.8,7.2v0.1c0,3.3-1.8,5.8-4.7,8.9l-7.4,7.9H250l-0.2,2.7h-15.4l-0.4-2.9
			l9.1-10.1c2.1-2.3,3.4-4.3,3.4-6.3V256c0-2.9-1.7-4.6-4.6-4.6c-2.2,0-4.4,0.6-5.9,2.2l-1-2.6C236.4,249.6,238.6,248.6,242.1,248.6
			z"/>
	</g>
	<g>
		<path class="st4" d="M185.4,371.1c0-8.1,2.9-13.6,9-13.6c6.1,0,9,5.5,9,13.6c0,7.7-2.6,13.6-9,13.6
			C188,384.7,185.4,378.8,185.4,371.1z M188.8,371c0,6.4,2,11.1,5.7,11.1c3.7,0,5.6-4.7,5.6-11.1c0-6.3-1.9-10.8-5.6-10.8
			C190.8,360.2,188.8,364.7,188.8,371z"/>
		<path class="st4" d="M209.8,384.5c-1.5,0-2.3-1.2-2.3-2.3s0.8-2.3,2.3-2.3s2.3,1.2,2.3,2.3S211.4,384.5,209.8,384.5z"/>
		<path class="st4" d="M227.6,360.7h-11.8l0.2-2.7h15.3v2.4l-9.4,23.9h-3.2L227.6,360.7z"/>
		<path class="st4" d="M240.9,358v26.3h-3.1v-23c-1.4,0.9-2.6,1.6-3.8,2l-0.6-2.6c1.5-0.7,3.4-1.7,4.8-2.7H240.9z"/>
	</g>
	<g>
		<path class="st4" d="M185.4,478.2c0-8.1,2.9-13.6,9-13.6c6.1,0,9,5.5,9,13.6c0,7.7-2.6,13.6-9,13.6
			C188,491.8,185.4,485.9,185.4,478.2z M188.8,478.1c0,6.4,2,11.1,5.7,11.1c3.7,0,5.6-4.7,5.6-11.1c0-6.3-1.9-10.8-5.6-10.8
			C190.8,467.3,188.8,471.9,188.8,478.1z"/>
		<path class="st4" d="M209.8,491.7c-1.5,0-2.3-1.2-2.3-2.3s0.8-2.3,2.3-2.3s2.3,1.2,2.3,2.3S211.4,491.7,209.8,491.7z"/>
		<path class="st4" d="M227.6,467.9h-11.8l0.2-2.7h15.3v2.4l-9.4,23.9h-3.2L227.6,467.9z"/>
		<path class="st4" d="M234.3,478.2c0-8.1,2.9-13.6,9-13.6c6.1,0,9,5.5,9,13.6c0,7.7-2.6,13.6-9,13.6
			C237,491.8,234.3,485.9,234.3,478.2z M237.7,478.1c0,6.4,2,11.1,5.7,11.1c3.7,0,5.6-4.7,5.6-11.1c0-6.3-1.9-10.8-5.6-10.8
			C239.7,467.3,237.7,471.9,237.7,478.1z"/>
	</g>
	<g>
		<path class="st4" d="M185.4,592.1c0-8.1,2.9-13.6,9-13.6c6.1,0,9,5.5,9,13.6c0,7.7-2.6,13.6-9,13.6
			C188,605.7,185.4,599.8,185.4,592.1z M188.8,592c0,6.4,2,11.1,5.7,11.1c3.7,0,5.6-4.7,5.6-11.1c0-6.3-1.9-10.8-5.6-10.8
			C190.8,581.2,188.8,585.7,188.8,592z"/>
		<path class="st4" d="M209.8,605.5c-1.5,0-2.3-1.2-2.3-2.3c0-1.2,0.8-2.3,2.3-2.3s2.3,1.2,2.3,2.3
			C212.2,604.3,211.4,605.5,209.8,605.5z"/>
		<path class="st4" d="M233.4,597.4c0,4.7-3.5,8.3-8.8,8.3c-5.6,0-8.9-3.9-8.9-8.7c0-4,1.3-6.4,4.9-10.9c1.5-1.9,5.8-7,5.8-7h4.1
			l-9.3,11.1c1.1-0.6,2.6-1.1,4-1.1C229.6,589.1,233.4,592.6,233.4,597.4z M224.5,603c3.6,0,5.6-2.6,5.6-5.6c0-3.2-2-5.7-5.6-5.7
			c-3.9,0-5.4,2.6-5.4,5.6C219.1,600.4,220.9,603,224.5,603z"/>
		<path class="st4" d="M236.5,586.8c0-4.7,3.5-8.3,8.9-8.3c5.6,0,8.7,3.7,8.7,8.5c0,3.5-1.1,5.8-3.8,9.5c-1.7,2.3-7.1,8.9-7.1,8.9
			h-3.9l9.3-11.6c-1.1,0.6-2.6,1-4,1C240.3,594.8,236.5,591.7,236.5,586.8z M245.5,581.2c-3.6,0-5.7,2.5-5.7,5.5
			c0,3.2,2,5.4,5.6,5.4c3.9,0,5.4-2.5,5.4-5.5S249.2,581.2,245.5,581.2z"/>
	</g>
	<g>
		<path class="st4" d="M185.4,699.3c0-8.1,2.9-13.6,9-13.6c6.1,0,9,5.5,9,13.6c0,7.7-2.6,13.6-9,13.6
			C188,712.9,185.4,707,185.4,699.3z M188.8,699.2c0,6.4,2,11.1,5.7,11.1c3.7,0,5.6-4.7,5.6-11.1c0-6.3-1.9-10.8-5.6-10.8
			C190.8,688.4,188.8,692.9,188.8,699.2z"/>
		<path class="st4" d="M209.8,712.7c-1.5,0-2.3-1.2-2.3-2.3c0-1.2,0.8-2.3,2.3-2.3s2.3,1.2,2.3,2.3
			C212.2,711.5,211.4,712.7,209.8,712.7z"/>
		<path class="st4" d="M233.4,704.6c0,4.7-3.5,8.3-8.8,8.3c-5.6,0-8.9-3.9-8.9-8.7c0-4,1.3-6.4,4.9-10.9c1.5-1.9,5.8-7,5.8-7h4.1
			l-9.3,11.1c1.1-0.6,2.6-1.1,4-1.1C229.6,696.3,233.4,699.7,233.4,704.6z M224.5,710.2c3.6,0,5.6-2.6,5.6-5.6c0-3.2-2-5.7-5.6-5.7
			c-3.9,0-5.4,2.6-5.4,5.6S220.9,710.2,224.5,710.2z"/>
		<path class="st4" d="M236.8,705.7c0-3.4,2.1-6,5.5-7.1c-3-1.1-4.9-3.1-4.9-6.3c0-4.2,3.4-6.6,8-6.6c4.6,0,7.9,2.4,7.9,6.6
			c0,3.2-1.7,5.3-4.5,6.3c3.1,1.1,5.1,3.7,5.1,7.1c0,4.7-3.9,7.2-8.5,7.2C240.8,712.9,236.8,710.4,236.8,705.7z M239.9,705.5
			c0,3,2.4,4.7,5.5,4.7c3.1,0,5.4-1.8,5.4-4.7c0-2.9-2.3-4.6-5.4-5.4C242.3,700.8,239.9,702.6,239.9,705.5z M240.6,692.2
			c0,2.8,1.7,4.5,4.9,5.2c3.2-0.7,4.8-2.4,4.8-5.2c0-2.5-2.2-4-4.8-4C242.9,688.2,240.6,689.7,240.6,692.2z"/>
	</g>
	<g>
		<path class="st4" d="M185.4,808.9c0-8.1,2.9-13.6,9-13.6c6.1,0,9,5.5,9,13.6c0,7.7-2.6,13.6-9,13.6
			C188,822.5,185.4,816.6,185.4,808.9z M188.8,808.8c0,6.4,2,11.1,5.7,11.1c3.7,0,5.6-4.7,5.6-11.1c0-6.3-1.9-10.8-5.6-10.8
			C190.8,798,188.8,802.6,188.8,808.8z"/>
		<path class="st4" d="M209.8,822.4c-1.5,0-2.3-1.2-2.3-2.3c0-1.2,0.8-2.3,2.3-2.3s2.3,1.2,2.3,2.3
			C212.2,821.2,211.4,822.4,209.8,822.4z"/>
		<path class="st4" d="M233.4,814.3c0,4.7-3.5,8.3-8.8,8.3c-5.6,0-8.9-3.9-8.9-8.7c0-4,1.3-6.4,4.9-10.9c1.5-1.9,5.8-7,5.8-7h4.1
			l-9.3,11.1c1.1-0.6,2.6-1.1,4-1.1C229.6,805.9,233.4,809.4,233.4,814.3z M224.5,819.9c3.6,0,5.6-2.6,5.6-5.6c0-3.2-2-5.7-5.6-5.7
			c-3.9,0-5.4,2.6-5.4,5.6C219.1,817.2,220.9,819.9,224.5,819.9z"/>
		<path class="st4" d="M248.6,798.6h-11.8l0.2-2.7h15.3v2.4l-9.4,23.9h-3.2L248.6,798.6z"/>
	</g>
	<g>
		<path class="st4" d="M185.4,918.6c0-8.1,2.9-13.6,9-13.6c6.1,0,9,5.5,9,13.6c0,7.7-2.6,13.6-9,13.6
			C188,932.2,185.4,926.3,185.4,918.6z M188.8,918.5c0,6.4,2,11.1,5.7,11.1c3.7,0,5.6-4.7,5.6-11.1c0-6.3-1.9-10.8-5.6-10.8
			C190.8,907.7,188.8,912.2,188.8,918.5z"/>
		<path class="st4" d="M209.8,932c-1.5,0-2.3-1.2-2.3-2.3c0-1.2,0.8-2.3,2.3-2.3s2.3,1.2,2.3,2.3C212.2,930.8,211.4,932,209.8,932z"
			/>
		<path class="st4" d="M233.4,923.9c0,4.7-3.5,8.3-8.8,8.3c-5.6,0-8.9-3.9-8.9-8.7c0-4,1.3-6.4,4.9-10.9c1.5-1.9,5.8-7,5.8-7h4.1
			l-9.3,11.1c1.1-0.6,2.6-1.1,4-1.1C229.6,915.6,233.4,919.1,233.4,923.9z M224.5,929.6c3.6,0,5.6-2.6,5.6-5.6c0-3.2-2-5.7-5.6-5.7
			c-3.9,0-5.4,2.6-5.4,5.6S220.9,929.6,224.5,929.6z"/>
		<path class="st4" d="M254.5,923.9c0,4.7-3.5,8.3-8.8,8.3c-5.6,0-8.9-3.9-8.9-8.7c0-4,1.3-6.4,4.9-10.9c1.5-1.9,5.8-7,5.8-7h4.1
			l-9.3,11.1c1.1-0.6,2.6-1.1,4-1.1C250.6,915.6,254.5,919.1,254.5,923.9z M245.6,929.6c3.6,0,5.6-2.6,5.6-5.6c0-3.2-2-5.7-5.6-5.7
			c-3.9,0-5.4,2.6-5.4,5.6S241.9,929.6,245.6,929.6z"/>
	</g>
	<g>
		<path class="st4" d="M323.8,1016.9c0-8.1,2.9-13.6,9-13.6c6.1,0,9,5.5,9,13.6c0,7.7-2.6,13.6-9,13.6
			C326.5,1030.5,323.8,1024.6,323.8,1016.9z M327.2,1016.8c0,6.4,2,11.1,5.7,11.1c3.7,0,5.6-4.7,5.6-11.1c0-6.3-1.9-10.8-5.6-10.8
			C329.2,1006,327.2,1010.5,327.2,1016.8z"/>
	</g>
	<g>
		<path class="st4" d="M450.8,1003.3c4.8,0,7.8,2.8,7.8,7.2v0.1c0,3.3-1.8,5.8-4.7,8.9l-7.4,7.9h12.2l-0.2,2.7h-15.4l-0.4-2.9
			l9.1-10.1c2.1-2.3,3.4-4.3,3.4-6.3v-0.2c0-2.9-1.7-4.6-4.6-4.6c-2.2,0-4.4,0.6-5.9,2.2l-1-2.6
			C445.1,1004.2,447.4,1003.3,450.8,1003.3z"/>
		<path class="st4" d="M478.1,1006.7h-10.7c-0.1,2.6-0.2,5.7-0.3,8.3c1.4-0.9,2.8-1.3,4.3-1.3c5.3,0,8,3.6,8,8
			c0,5.3-3.6,8.8-9.5,8.8c-3.1,0-5.5-1-7.1-2.4l1.2-2.5c1.1,0.9,3.1,2.1,6,2.1c3.9,0,6.2-2.4,6.2-5.9c0-3-1.8-5.3-5.4-5.3
			c-1.7,0-3.1,0.5-4.2,1.7l-2.4-0.3l0.7-14h13.5L478.1,1006.7z"/>
	</g>
	<g>
		<path class="st4" d="M592.4,1006.7h-10.7c-0.1,2.6-0.2,5.7-0.3,8.3c1.4-0.9,2.8-1.3,4.3-1.3c5.3,0,8,3.6,8,8
			c0,5.3-3.6,8.8-9.5,8.8c-3.1,0-5.5-1-7.1-2.4l1.2-2.5c1.1,0.9,3.1,2.1,6,2.1c3.9,0,6.2-2.4,6.2-5.9c0-3-1.8-5.3-5.4-5.3
			c-1.7,0-3.1,0.5-4.2,1.7l-2.4-0.3l0.7-14h13.5L592.4,1006.7z"/>
		<path class="st4" d="M597.7,1016.9c0-8.1,2.9-13.6,9-13.6c6.1,0,9,5.5,9,13.6c0,7.7-2.6,13.6-9,13.6
			C600.3,1030.5,597.7,1024.6,597.7,1016.9z M601.1,1016.8c0,6.4,2,11.1,5.7,11.1c3.7,0,5.6-4.7,5.6-11.1c0-6.3-1.9-10.8-5.6-10.8
			C603,1006,601.1,1010.5,601.1,1016.8z"/>
	</g>
	<g>
		<path class="st4" d="M720.1,1006.5h-11.8l0.2-2.7h15.3v2.4l-9.4,23.9h-3.2L720.1,1006.5z"/>
		<path class="st4" d="M742.4,1006.7h-10.7c-0.1,2.6-0.2,5.7-0.3,8.3c1.4-0.9,2.8-1.3,4.3-1.3c5.3,0,8,3.6,8,8
			c0,5.3-3.6,8.8-9.5,8.8c-3.1,0-5.5-1-7.1-2.4l1.2-2.5c1.1,0.9,3.1,2.1,6,2.1c3.9,0,6.2-2.4,6.2-5.9c0-3-1.8-5.3-5.4-5.3
			c-1.7,0-3.1,0.5-4.2,1.7l-2.4-0.3l0.7-14h13.5L742.4,1006.7z"/>
	</g>
	<g>
		<path class="st4" d="M837.3,1003.8v26.3h-3.1v-23c-1.4,0.9-2.6,1.6-3.8,2l-0.6-2.6c1.5-0.7,3.4-1.7,4.8-2.7H837.3z"/>
		<path class="st4" d="M842.3,1016.9c0-8.1,2.9-13.6,9-13.6c6.1,0,9,5.5,9,13.6c0,7.7-2.6,13.6-9,13.6
			C845,1030.5,842.3,1024.6,842.3,1016.9z M845.7,1016.8c0,6.4,2,11.1,5.7,11.1c3.7,0,5.6-4.7,5.6-11.1c0-6.3-1.9-10.8-5.6-10.8
			C847.7,1006,845.7,1010.5,845.7,1016.8z"/>
		<path class="st4" d="M864.1,1016.9c0-8.1,2.9-13.6,9-13.6s9,5.5,9,13.6c0,7.7-2.6,13.6-9,13.6S864.1,1024.6,864.1,1016.9z
			 M867.5,1016.8c0,6.4,2,11.1,5.7,11.1s5.6-4.7,5.6-11.1c0-6.3-1.9-10.8-5.6-10.8S867.5,1010.5,867.5,1016.8z"/>
	</g>
	<g>
		<path class="st4" d="M972.9,1003.8v26.3h-3.1v-23c-1.4,0.9-2.6,1.6-3.8,2l-0.6-2.6c1.5-0.7,3.4-1.7,4.8-2.7H972.9z"/>
		<path class="st4" d="M985.7,1003.3c4.8,0,7.8,2.8,7.8,7.2v0.1c0,3.3-1.8,5.8-4.7,8.9l-7.4,7.9h12.2l-0.2,2.7H978l-0.4-2.9
			l9.1-10.1c2.1-2.3,3.4-4.3,3.4-6.3v-0.2c0-2.9-1.7-4.6-4.6-4.6c-2.2,0-4.4,0.6-5.9,2.2l-1-2.6
			C980.1,1004.2,982.3,1003.3,985.7,1003.3z"/>
		<path class="st4" d="M1013,1006.7h-10.7c-0.1,2.6-0.2,5.7-0.3,8.3c1.4-0.9,2.8-1.3,4.3-1.3c5.3,0,8,3.6,8,8c0,5.3-3.6,8.8-9.5,8.8
			c-3.1,0-5.5-1-7.1-2.4l1.2-2.5c1.1,0.9,3.1,2.1,6,2.1c3.9,0,6.2-2.4,6.2-5.9c0-3-1.8-5.3-5.4-5.3c-1.7,0-3.1,0.5-4.2,1.7l-2.4-0.3
			l0.7-14h13.5L1013,1006.7z"/>
	</g>
	<g>
		<path class="st4" d="M1104.3,1003.8v26.3h-3.1v-23c-1.4,0.9-2.6,1.6-3.8,2l-0.6-2.6c1.5-0.7,3.4-1.7,4.8-2.7H1104.3z"/>
		<path class="st4" d="M1124.9,1006.7h-10.7c-0.1,2.6-0.2,5.7-0.3,8.3c1.4-0.9,2.8-1.3,4.3-1.3c5.3,0,8,3.6,8,8
			c0,5.3-3.6,8.8-9.5,8.8c-3.1,0-5.5-1-7.1-2.4l1.2-2.5c1.1,0.9,3.1,2.1,6,2.1c3.9,0,6.2-2.4,6.2-5.9c0-3-1.8-5.3-5.4-5.3
			c-1.7,0-3.1,0.5-4.2,1.7l-2.4-0.3l0.7-14h13.5L1124.9,1006.7z"/>
		<path class="st4" d="M1130.1,1016.9c0-8.1,2.9-13.6,9-13.6s9,5.5,9,13.6c0,7.7-2.6,13.6-9,13.6
			C1132.7,1030.5,1130.1,1024.6,1130.1,1016.9z M1133.5,1016.8c0,6.4,2,11.1,5.7,11.1s5.6-4.7,5.6-11.1c0-6.3-1.9-10.8-5.6-10.8
			S1133.5,1010.5,1133.5,1016.8z"/>
	</g>
	<g>
		<path class="st4" d="M1236.6,1003.8v26.3h-3.1v-23c-1.4,0.9-2.6,1.6-3.8,2l-0.6-2.6c1.5-0.7,3.4-1.7,4.8-2.7H1236.6z"/>
		<path class="st4" d="M1253.4,1006.5h-11.8l0.2-2.7h15.3v2.4l-9.4,23.9h-3.2L1253.4,1006.5z"/>
		<path class="st4" d="M1275.6,1006.7h-10.7c-0.1,2.6-0.2,5.7-0.3,8.3c1.4-0.9,2.8-1.3,4.3-1.3c5.3,0,8,3.6,8,8
			c0,5.3-3.6,8.8-9.5,8.8c-3.1,0-5.5-1-7.1-2.4l1.2-2.5c1.1,0.9,3.1,2.1,6,2.1c3.9,0,6.2-2.4,6.2-5.9c0-3-1.8-5.3-5.4-5.3
			c-1.7,0-3.1,0.5-4.2,1.7l-2.4-0.3l0.7-14h13.5L1275.6,1006.7z"/>
	</g>
	<g>
		<path class="st4" d="M1370,1003.3c4.8,0,7.8,2.8,7.8,7.2v0.1c0,3.3-1.8,5.8-4.7,8.9l-7.4,7.9h12.2l-0.2,2.7h-15.4l-0.4-2.9
			l9.1-10.1c2.1-2.3,3.4-4.3,3.4-6.3v-0.2c0-2.9-1.7-4.6-4.6-4.6c-2.2,0-4.4,0.6-5.9,2.2l-1-2.6
			C1364.4,1004.2,1366.6,1003.3,1370,1003.3z"/>
		<path class="st4" d="M1381.9,1016.9c0-8.1,2.9-13.6,9-13.6c6.1,0,9,5.5,9,13.6c0,7.7-2.6,13.6-9,13.6S1381.9,1024.6,1381.9,1016.9
			z M1385.3,1016.8c0,6.4,2,11.1,5.7,11.1c3.7,0,5.6-4.7,5.6-11.1c0-6.3-1.9-10.8-5.6-10.8C1387.3,1006,1385.3,1010.5,1385.3,1016.8
			z"/>
		<path class="st4" d="M1403.7,1016.9c0-8.1,2.9-13.6,9-13.6s9,5.5,9,13.6c0,7.7-2.6,13.6-9,13.6
			C1406.3,1030.5,1403.7,1024.6,1403.7,1016.9z M1407.1,1016.8c0,6.4,2,11.1,5.7,11.1s5.6-4.7,5.6-11.1c0-6.3-1.9-10.8-5.6-10.8
			S1407.1,1010.5,1407.1,1016.8z"/>
	</g>
	<g>
		<path class="st3" d="M120.9,724.3l-32.5,12.3V730l24.4-8.7L88.4,713v-6.5l32.5,11.9V724.3z"/>
		<path class="st3" d="M121.4,697.8c0,4.5-2.6,7.5-6.9,7.5c-6.1,0-7-4.2-8.2-12.1l-0.3-1.7h-1.1c-2.8,0-4,0.2-4.1,3.5v0.3
			c0,2.3,1.3,6.3,1.7,7.4l-4.6,1.2c-1-2.2-1.7-5.2-1.8-9.2v-0.6c0-5.5,2.6-9.1,7.8-9.1h17v4.9l-2.6,0.6
			C120.1,692.7,121.4,694.7,121.4,697.8z M115.3,691.5h-5.7l0.3,1.7c0.5,3.5,1.1,6.4,4.4,6.4c1.7,0,3-1,3-2.9
			C117.3,694.4,116.5,693.2,115.3,691.5z"/>
		<path class="st3" d="M111.6,673.8c3.6,0,4.9-0.3,4.9-3.7c0-1.1-0.1-1.3-0.1-1.3l4.6-0.3c0,0,0.3,1.2,0.3,3.3
			c0,7.2-4.4,8.4-10.5,8.4h-23l-0.4-6.3H111.6z"/>
		<path class="st3" d="M92.9,658.8v6.4h-5.2v-6.4H92.9z M120.9,658.9v6.3H97v-6.3H120.9z"/>
		<path class="st3" d="M117.6,637c2.2,1.2,3.8,3.3,3.8,6.8v0.3c-0.1,6.9-5.6,10.6-12.7,10.6c-6.7,0-12.5-3.8-12.5-10.8
			c0-4,1.9-6.1,3.6-6.9H87.3v-6.3h33.6v6.2L117.6,637z M108.8,636.9c-6.1,0-8,2.9-8,5.8c0,2.8,1.6,5.9,8,5.9c6.1,0,7.9-3.1,7.9-5.9
			C116.7,639.8,115,636.9,108.8,636.9z"/>
		<path class="st3" d="M121.4,619.4c0,4.5-2.6,7.5-6.9,7.5c-6.1,0-7-4.2-8.2-12.1l-0.3-1.7h-1.1c-2.8,0-4,0.2-4.1,3.5v0.3
			c0,2.3,1.3,6.3,1.7,7.4l-4.6,1.2c-1-2.2-1.7-5.2-1.8-9.2v-0.6c0-5.5,2.6-9.1,7.8-9.1h17v4.9l-2.6,0.6
			C120.1,614.3,121.4,616.3,121.4,619.4z M115.3,613.1h-5.7l0.3,1.7c0.5,3.5,1.1,6.4,4.4,6.4c1.7,0,3-1,3-2.9
			C117.3,616.1,116.5,614.8,115.3,613.1z"/>
		<path class="st3" d="M111,594.6c4,0,5.3-0.2,5.3-3.7c0-0.1-0.1-2-0.1-2l4.7-0.4c0,0,0.3,2.3,0.3,3.6c0,7.4-3.5,8.9-10.5,8.9h-9.8
			v4.1l-3.8-0.4v-3.8l-8.7-1.6v-4.8H97v-5.9h3.8v5.9H111z"/>
		<path class="st3" d="M92.9,577.8v6.4h-5.2v-6.4H92.9z M120.9,577.9v6.3H97v-6.3H120.9z"/>
		<path class="st3" d="M108.8,550.3c7.3,0,12.6,4,12.6,11.8c0,7.8-5.3,11.8-12.6,11.8c-7.4,0-12.7-4-12.7-11.8
			C96.1,554.3,101.4,550.3,108.8,550.3z M108.8,556.4c-5.3,0-8,2.3-8,5.7c0,3.4,2.7,5.7,8,5.7c5.2,0,7.9-2.3,7.9-5.7
			S114,556.4,108.8,556.4z"/>
		<path class="st3" d="M100.8,534.4c0,2.3,1.9,4.8,3.8,5.8h16.3v6.4H97v-5.3l3.2-0.5c-2.2-1.9-4.1-4.9-4.1-8.5
			c0.1-5.8,4.4-8.3,10.3-8.3h14.5v6.4H107C103.7,530.4,100.8,530.6,100.8,534.4z"/>
		<path class="st3" d="M110.9,492.5v9.6l10,3.5v6.6l-2.7-0.9l-29.8-10.9v-6.3l29.8-10.6l2.7-0.9v6.3L110.9,492.5z M106.8,494
			l-11,3.2l11,3.4V494z"/>
		<path class="st3" d="M115,463.4l4.3-1.2c1.4,2.1,2.1,4,2.1,6.9v0.1c0,7-4.2,12.2-12.9,12.2c-8.3,0-12.3-5.7-12.3-11.7v-0.2
			c0-3.3,0.8-5.2,2.2-7l4.2,1c-0.7,1-1.7,3.3-1.7,5.4c0,3.5,2.3,6.4,7.9,6.4c5.8,0,8.1-2.6,8.1-6.5
			C116.8,466.6,115.9,464.7,115,463.4z"/>
		<path class="st3" d="M115,442.2l4.3-1.2c1.4,2.1,2.1,4,2.1,6.9v0.1c0,7-4.2,12.2-12.9,12.2c-8.3,0-12.3-5.7-12.3-11.7v-0.2
			c0-3.3,0.8-5.2,2.2-7l4.2,1c-0.7,1-1.7,3.3-1.7,5.4c0,3.5,2.3,6.4,7.9,6.4c5.8,0,8.1-2.6,8.1-6.5
			C116.8,445.4,115.9,443.5,115,442.2z"/>
		<path class="st3" d="M97,438.4V432h15.1c3.4,0,4.6-1.7,4.6-4.5c0-2.8-1.2-4.6-4.6-4.6H97v-6.4h15.2c6.2,0,9.1,4.5,9.1,10.9
			c0,6.4-2.9,10.9-9.1,10.9H97z"/>
		<path class="st3" d="M97,399.2l4.8-0.3v1.7c0,4.5,2.3,5.3,5.9,5.3h13.2v6.3H97v-5.9l3.3-0.5c-2.1-1.5-3.3-3.1-3.3-6.1V399.2z"/>
		<path class="st3" d="M121.4,390.5c0,4.5-2.6,7.5-6.9,7.5c-6.1,0-7-4.2-8.2-12.1l-0.3-1.7h-1.1c-2.8,0-4,0.2-4.1,3.5v0.3
			c0,2.3,1.3,6.3,1.7,7.4l-4.6,1.2c-1-2.2-1.7-5.2-1.8-9.2v-0.6c0-5.5,2.6-9.1,7.8-9.1h17v4.9l-2.6,0.6
			C120.1,385.4,121.4,387.4,121.4,390.5z M115.3,384.2h-5.7l0.3,1.7c0.5,3.5,1.1,6.4,4.4,6.4c1.7,0,3-1,3-2.9
			C117.3,387.2,116.5,385.9,115.3,384.2z"/>
		<path class="st3" d="M115,356.1l4.3-1.2c1.4,2.1,2.1,4,2.1,6.9v0.1c0,7-4.2,12.2-12.9,12.2c-8.3,0-12.3-5.7-12.3-11.7v-0.2
			c0-3.3,0.8-5.2,2.2-7l4.2,1c-0.7,1-1.7,3.3-1.7,5.4c0,3.5,2.3,6.4,7.9,6.4c5.8,0,8.1-2.6,8.1-6.5
			C116.8,359.3,115.9,357.4,115,356.1z"/>
		<path class="st3" d="M120.1,345.1L97,354.7v-6.4L113,342L97,336.6V330l25.5,9.8c6.2,2.4,7.6,5,7.6,10.2v3.1l-4.6,0.6V352
			C125.6,347.8,125.9,346.7,120.1,345.1z"/>
	</g>
	<g>
		<path class="st3" d="M851.1,1074.1v18.8l8.9-9.1h7.6l-9.5,9.8l10.6,14.1h-7.8l-8.1-11.6l-1.7,1.2v10.4h-6.4v-33.6H851.1z"/>
	</g>
</g>
</svg>
